<?xml version="1.0" encoding="utf-8"?>
<!-- Generator: Adobe Illustrator 24.2.3, SVG Export Plug-In . SVG Version: 6.00 Build 0)  -->
<svg version="1.1" xmlns="http://www.w3.org/2000/svg" xmlns:xlink="http://www.w3.org/1999/xlink" x="0px" y="0px"
	 viewBox="0 0 135.3 20.6" style="enable-background:new 0 0 135.3 20.6;" xml:space="preserve">
<style type="text/css">
	.st0{fill:#E6E7E8;}
	.st1{fill:#FFFFFF;}
	.st2{fill:#F6F5F5;}
	.st3{fill:#231F20;}
	.st4{fill:#2B3C41;}
	.st5{clip-path:url(#SVGID_2_);}
	.st6{clip-path:url(#SVGID_4_);}
	.st7{fill:#4B58A3;}
	.st8{fill:#D2A639;}
	.st9{fill:#1F968B;}
	.st10{fill:#6DB64C;}
	.st11{fill:#B5204D;}
	.st12{fill:#CCD7ED;}
	.st13{clip-path:url(#SVGID_6_);}
	.st14{fill:#EC365C;}
	.st15{fill:#939598;}
	.st16{fill:#7E8283;}
	.st17{fill:#3C5AA5;}
	.st18{fill:#213364;}
	.st19{fill:url(#SVGID_7_);}
	.st20{fill:url(#SVGID_8_);}
	.st21{fill:url(#SVGID_9_);}
	.st22{fill:url(#l1_11_);}
	.st23{fill:url(#SVGID_10_);}
	.st24{fill:url(#SVGID_11_);}
	.st25{fill:url(#SVGID_12_);}
	.st26{fill:url(#SVGID_13_);}
	.st27{fill:url(#SVGID_14_);}
	.st28{fill:#3A62AC;}
	.st29{fill:url(#SVGID_15_);}
	.st30{fill:url(#SVGID_16_);}
	.st31{fill-opacity:0;stroke:#FFFFFF;stroke-width:3;}
	.st32{fill:#FFCC05;}
	.st33{fill:#B28E03;}
	.st34{fill:url(#SVGID_17_);}
	.st35{fill:url(#SVGID_18_);}
	.st36{fill:url(#SVGID_19_);}
	.st37{fill:url(#l1_12_);}
	.st38{fill:url(#SVGID_20_);}
	.st39{fill:url(#SVGID_21_);}
	.st40{fill:url(#SVGID_22_);}
	.st41{fill:url(#SVGID_23_);}
	.st42{fill:url(#SVGID_24_);}
	.st43{fill:url(#SVGID_25_);}
	.st44{fill:url(#SVGID_26_);}
	.st45{fill:#332314;}
	.st46{fill:none;}
	.st47{fill:#F9F9F9;}
	.st48{fill:#DB1233;}
	.st49{fill:#27AAFE;stroke:#231F20;stroke-width:2;stroke-miterlimit:10;}
	.st50{fill:#F2CD16;}
	.st51{fill:#FE120C;}
	.st52{fill:#61B16C;}
	.st53{fill:none;stroke:#231F20;stroke-width:3.66;stroke-miterlimit:10;}
	.st54{fill:none;stroke:#231F20;stroke-width:3;stroke-linecap:round;stroke-miterlimit:10;}
	.st55{fill:#9E549E;}
	.st56{fill:#D1D0C8;stroke:#231F20;stroke-width:3.6666;stroke-miterlimit:10;}
	.st57{fill:#231F20;stroke:#231F20;stroke-width:3.6666;stroke-miterlimit:10;}
	.st58{fill:#FE120C;stroke:#231F20;stroke-width:3.6666;stroke-miterlimit:10;}
	.st59{fill:#F2CD16;stroke:#231F20;stroke-width:2;stroke-linecap:round;stroke-miterlimit:10;}
	.st60{fill:none;stroke:#FE120C;stroke-width:2;stroke-linecap:round;stroke-miterlimit:10;}
	.st61{fill:#FFFFFF;stroke:#231F20;stroke-width:2;stroke-miterlimit:10;}
	.st62{fill:#FE120C;stroke:#231F20;stroke-width:2;stroke-miterlimit:10;}
	.st63{fill:#130C0A;}
	.st64{fill:none;stroke:#231F20;stroke-width:2;stroke-linecap:round;stroke-miterlimit:10;}
	.st65{fill:#1A335A;}
	.st66{fill:#B93824;}
	.st67{fill:#E6E0DA;}
	.st68{fill:#B73828;}
	.st69{fill:#F2CD16;stroke:#231F20;stroke-width:2;stroke-linecap:round;stroke-linejoin:round;stroke-miterlimit:10;}
	.st70{fill:none;stroke:#FE120C;stroke-width:2;stroke-linecap:round;stroke-linejoin:round;stroke-miterlimit:10;}
	.st71{fill:#D1D0C8;stroke:#231F20;stroke-width:3;stroke-miterlimit:10;}
	.st72{fill:#FE120C;stroke:#231F20;stroke-width:3;stroke-miterlimit:10;}
	.st73{fill:#D1D0C8;}
	.st74{fill:#5D439C;}
	.st75{fill:#ED018C;}
	.st76{fill:#1A1818;}
	.st77{fill:#E2E0E3;}
	.st78{fill:#0D0299;}
	.st79{fill:url(#SVGID_29_);}
	.st80{fill:#27AAFE;}
	.st81{fill:url(#SVGID_30_);}
	.st82{fill:url(#SVGID_31_);}
	.st83{fill:url(#SVGID_32_);}
	.st84{fill:url(#l1_13_);}
	.st85{fill:url(#SVGID_33_);}
	.st86{fill:url(#SVGID_34_);}
	.st87{fill:url(#SVGID_35_);}
	.st88{fill:url(#SVGID_36_);}
	.st89{fill:url(#SVGID_37_);}
	.st90{fill:url(#SVGID_38_);}
	.st91{fill:url(#SVGID_39_);}
	.st92{fill:url(#SVGID_40_);}
	.st93{fill:url(#SVGID_41_);}
	.st94{fill:url(#SVGID_42_);}
	.st95{fill:url(#l1_14_);}
	.st96{fill:url(#SVGID_43_);}
	.st97{fill:url(#SVGID_44_);}
	.st98{fill:url(#SVGID_45_);}
	.st99{fill:url(#SVGID_46_);}
	.st100{fill:url(#SVGID_47_);}
	.st101{fill:url(#SVGID_48_);}
	.st102{fill:url(#SVGID_49_);}
	.st103{fill:none;stroke:#FFFFFF;stroke-miterlimit:10;}
	.st104{fill:none;stroke:#1A1818;stroke-width:3;stroke-miterlimit:10;}
	.st105{fill:#D1D0C8;stroke:#1A1818;stroke-width:3;stroke-miterlimit:10;}
	.st106{opacity:0.9;fill:#010216;}
	.st107{fill:#E8E8E8;}
	.st108{clip-path:url(#SVGID_53_);}
	.st109{fill:#CFDAFF;}
	.st110{fill:#0072D8;}
	.st111{fill:#070707;}
	.st112{fill:none;stroke:#070707;stroke-miterlimit:10;}
	.st113{fill:#A05B22;}
	.st114{fill:#D48233;}
	.st115{fill:url(#SVGID_54_);}
	.st116{fill:url(#SVGID_55_);}
	.st117{fill:url(#SVGID_56_);}
	.st118{fill:url(#SVGID_57_);}
	.st119{fill:#0B0742;}
	.st120{fill:#212121;}
	.st121{fill:#0C132E;}
	.st122{fill:#0B1221;}
	.st123{fill:#2CF1FB;}
	.st124{fill:#023A68;}
	.st125{fill:#BCC3DF;}
	.st126{fill:url(#SVGID_58_);}
	.st127{fill:url(#SVGID_59_);}
	.st128{fill:url(#SVGID_60_);}
	.st129{fill:url(#l1_15_);}
	.st130{fill:url(#SVGID_61_);}
	.st131{fill:url(#SVGID_62_);}
	.st132{fill:url(#SVGID_63_);}
	.st133{fill:url(#SVGID_64_);}
	.st134{fill:url(#SVGID_65_);}
	.st135{fill:url(#SVGID_66_);}
	.st136{fill:url(#SVGID_67_);}
	.st137{fill:url(#SVGID_68_);}
	.st138{fill:url(#SVGID_69_);}
	.st139{fill:url(#SVGID_70_);}
	.st140{fill:url(#l1_16_);}
	.st141{fill:url(#SVGID_71_);}
	.st142{fill:url(#SVGID_72_);}
	.st143{fill:url(#SVGID_73_);}
	.st144{fill:url(#SVGID_74_);}
	.st145{fill:url(#SVGID_75_);}
	.st146{fill:url(#SVGID_76_);}
	.st147{fill:url(#SVGID_77_);}
	.st148{fill:#ED7C00;}
	.st149{fill:#5A5AFF;}
	.st150{fill:url(#SVGID_90_);}
	.st151{fill:url(#SVGID_91_);}
	.st152{fill:url(#SVGID_92_);}
	.st153{fill:url(#l1_17_);}
	.st154{fill:url(#SVGID_93_);}
	.st155{fill:url(#SVGID_94_);}
	.st156{fill:url(#SVGID_95_);}
	.st157{fill:url(#SVGID_96_);}
	.st158{fill:url(#SVGID_97_);}
	.st159{fill:url(#SVGID_98_);}
	.st160{fill:url(#SVGID_99_);}
	.st161{fill:url(#SVGID_100_);}
	.st162{fill:url(#SVGID_101_);}
	.st163{fill:url(#SVGID_102_);}
	.st164{fill:url(#l1_18_);}
	.st165{fill:url(#SVGID_103_);}
	.st166{fill:url(#SVGID_104_);}
	.st167{fill:url(#SVGID_105_);}
	.st168{fill:url(#SVGID_106_);}
	.st169{fill:url(#SVGID_107_);}
	.st170{fill:url(#SVGID_108_);}
	.st171{fill:url(#SVGID_109_);}
	.st172{fill:none;stroke:#0280FF;stroke-miterlimit:10;}
	.st173{fill:#7BAAAD;}
	.st174{enable-background:new    ;}
	.st175{fill:#FF1A1A;}
	.st176{fill:none;stroke:#231F20;stroke-width:7;stroke-miterlimit:10;}
	.st177{fill:url(#SVGID_110_);}
	.st178{fill:url(#SVGID_111_);}
	.st179{fill:url(#SVGID_112_);}
	.st180{fill:url(#SVGID_113_);}
	.st181{fill:url(#l1_19_);}
	.st182{fill:url(#SVGID_114_);}
	.st183{fill:url(#SVGID_115_);}
	.st184{fill:url(#SVGID_116_);}
	.st185{fill:url(#SVGID_117_);}
	.st186{fill:url(#SVGID_118_);}
	.st187{fill:url(#SVGID_119_);}
	.st188{fill:url(#SVGID_120_);}
	.st189{fill:url(#SVGID_121_);}
	.st190{fill:url(#SVGID_122_);}
	.st191{fill:url(#SVGID_123_);}
	.st192{fill:url(#l1_20_);}
	.st193{fill:url(#SVGID_124_);}
	.st194{fill:url(#SVGID_125_);}
	.st195{fill:url(#SVGID_126_);}
	.st196{fill:url(#SVGID_127_);}
	.st197{fill:url(#SVGID_128_);}
	.st198{fill:url(#SVGID_129_);}
	.st199{fill:url(#SVGID_130_);}
	.st200{fill:url(#SVGID_131_);}
	.st201{fill:#FF3E60;}
	.st202{fill:#010101;}
	.st203{fill:#222222;}
	.st204{fill:#0000FF;}
	.st205{fill:none;stroke:#FCFCFC;stroke-miterlimit:10;}
	.st206{fill:none;stroke:#231F20;stroke-miterlimit:10;}
	.st207{fill:none;stroke:#231F20;stroke-linecap:round;stroke-miterlimit:10;}
	.st208{fill:none;stroke:#231F20;stroke-width:4;stroke-miterlimit:10;}
	.st209{fill:#231F20;stroke:#FFFFFF;stroke-width:4;stroke-miterlimit:10;}
	.st210{fill:#D7E4EA;}
	.st211{fill:#C90027;}
	.st212{fill:#CDCDCD;stroke:#231F20;stroke-width:7;stroke-miterlimit:10;}
	.st213{fill:#858585;}
	.st214{fill:#872E0A;}
	.st215{fill:none;stroke:#858585;stroke-miterlimit:10;}
	.st216{fill:none;stroke:#231F20;stroke-width:3;stroke-miterlimit:10;}
	.st217{fill:#E6E7E8;stroke:#231F20;stroke-width:3;stroke-miterlimit:10;}
	.st218{fill:#6D6F71;}
	.st219{fill:none;stroke:#0085FF;stroke-width:3;stroke-linecap:square;stroke-miterlimit:10;}
	.st220{fill:none;stroke:#C90027;stroke-miterlimit:10;}
	.st221{fill:#0280FF;stroke:#231F20;stroke-miterlimit:10;}
	.st222{fill:#0280FF;}
	.st223{fill:#92FF5A;}
	.st224{fill:#858585;stroke:#231F20;stroke-width:2;stroke-miterlimit:10;}
	.st225{fill:#858585;stroke:#231F20;stroke-width:3;stroke-miterlimit:10;}
	.st226{fill:#D7E4EA;stroke:#231F20;stroke-width:2;stroke-miterlimit:10;}
	.st227{fill:#92FF5A;stroke:#231F20;stroke-miterlimit:10;}
	.st228{fill:#63E42C;}
	.st229{fill:none;stroke:#0280FF;stroke-width:8;stroke-miterlimit:10;}
	.st230{fill:#A7A9AC;}
	.st231{fill:#A90526;}
	.st232{fill-rule:evenodd;clip-rule:evenodd;fill:#0080FF;}
	.st233{fill:#D8E5EA;}
	.st234{fill:#33363A;}
	.st235{fill:#95A2A5;}
	.st236{fill:#808E93;}
	.st237{fill:#A7BBC1;}
</style>
<g id="FOND">
	<g class="st174">
		<path d="M25.1,2.7c0.1-0.2,0.1-0.3,0.1-0.5s0-0.3-0.1-0.4c0-0.1-0.1-0.2-0.2-0.3c-0.1-0.1-0.2-0.1-0.3-0.2c-0.1,0-0.2-0.1-0.4-0.1
			c-0.2,0-0.4-0.1-0.5-0.1s-0.3,0-0.5,0c-0.1-0.1-0.1-0.2-0.1-0.5s0-0.4,0.1-0.5c1.7,0,2.8,0.1,3.4,0.1c0.6,0,1.5,0,2.7-0.1
			c0.1,0.1,0.2,0.3,0.2,0.5c0,0.2-0.1,0.4-0.2,0.5c-0.8,0-1.4,0.2-1.7,0.5C27,2,26.7,2.5,26.4,3.1l-6.2,16.7
			c-0.2,0.5-0.4,0.8-0.7,0.8c-0.3,0-0.5-0.3-0.7-0.8L15.2,9.5c-0.2-0.6-0.3-0.9-0.4-0.9c-0.1,0-0.3,0.3-0.5,0.8L9.6,19.8
			c-0.3,0.6-0.5,0.8-0.8,0.8c-0.3,0-0.5-0.3-0.7-0.8L2.3,3C2.1,2.2,1.8,1.7,1.6,1.5C1.3,1.4,0.8,1.3,0.1,1.2C0,1.1,0,1,0,0.7
			s0-0.4,0.1-0.5c1.2,0,2.2,0.1,2.9,0.1c1,0,2.2,0,3.6-0.1c0.1,0.1,0.2,0.3,0.2,0.5c0,0.2,0,0.4-0.2,0.5C6,1.3,5.5,1.4,5.2,1.5
			C5,1.7,4.9,2,5.1,2.5l4.5,13.7l0.1,0l4-9.1C13.9,6.7,14,6.4,14,6.1c0-0.2-0.1-0.5-0.2-1l-0.7-2.1c-0.4-1.2-1.3-1.8-2.6-1.8
			c-0.1-0.1-0.1-0.2-0.1-0.5s0-0.4,0.1-0.5c1.3,0,2.4,0.1,3.1,0.1c0.9,0,2.2,0,3.9-0.1c0.1,0.1,0.2,0.3,0.2,0.5
			c0,0.2-0.1,0.4-0.2,0.5c-0.3,0-0.5,0-0.6,0.1s-0.3,0.1-0.5,0.2c-0.2,0.1-0.4,0.2-0.4,0.3c0,0.1-0.1,0.3-0.2,0.5
			c-0.1,0.2,0,0.5,0.1,0.8l4.3,13.1l0.1,0L25.1,2.7z"/>
	</g>
	<g class="st174">
		<path d="M34,17.3c0,1,0.1,1.6,0.4,1.8s0.8,0.4,1.7,0.4c0.1,0.1,0.1,0.2,0.1,0.4s0,0.3-0.1,0.4c-1.4,0-2.5,0-3.1,0
			c-0.6,0-1.7,0-3.1,0c-0.1-0.1-0.1-0.2-0.1-0.4s0-0.3,0.1-0.4c0.9,0,1.5-0.2,1.7-0.4s0.4-0.8,0.4-1.8V7.7c0-1-0.1-1.6-0.4-1.8
			s-0.8-0.4-1.7-0.4c-0.1-0.1-0.1-0.2-0.1-0.4s0-0.3,0.1-0.4c1.5,0,2.5,0,3.1,0c0.7,0,1.7,0,3.1,0c0.1,0.1,0.1,0.2,0.1,0.4
			s0,0.3-0.1,0.4c-0.9,0-1.5,0.2-1.7,0.4S34,6.7,34,7.7V17.3z"/>
		<path d="M41.1,17.3c0,1,0.1,1.6,0.4,1.8s0.8,0.4,1.7,0.4c0.1,0.1,0.1,0.2,0.1,0.4s0,0.3-0.1,0.4c-1.4,0-2.5,0-3.1,0
			c-0.6,0-1.7,0-3.1,0c-0.1-0.1-0.1-0.2-0.1-0.4s0-0.3,0.1-0.4c0.9,0,1.5-0.2,1.7-0.4s0.4-0.8,0.4-1.8V7.7c0-1-0.1-1.6-0.4-1.8
			S37.9,5.5,37,5.5c-0.1-0.1-0.1-0.2-0.1-0.4s0-0.3,0.1-0.4c1.4,0,2.5,0,3.1,0c0.6,0,1.6,0,3.1,0c0.1,0.1,0.1,0.2,0.1,0.4
			s0,0.3-0.1,0.4c-0.9,0-1.5,0.2-1.7,0.4s-0.4,0.8-0.4,1.8v4.2c0.7-0.1,1.4-0.4,1.9-0.9l4-4.2c0.2-0.3,0.4-0.5,0.5-0.6
			s0-0.3-0.1-0.4s-0.3-0.1-0.4-0.2s-0.3-0.1-0.6-0.1c-0.1-0.1-0.1-0.2-0.1-0.4s0-0.3,0.1-0.4c1.2,0,2.1,0,2.7,0c0.5,0,1.3,0,2.3,0
			c0.1,0.1,0.1,0.2,0.1,0.4s0,0.3-0.1,0.4c-0.4,0-0.7,0.1-1,0.1S49.7,5.8,49.4,6s-0.7,0.5-1.1,0.8l-3.5,3.6c-0.6,0.6-0.8,1-0.8,1.2
			c0,0.2,0.1,0.4,0.3,0.6l5.3,6.2c0.2,0.3,0.5,0.5,0.7,0.6s0.5,0.2,0.7,0.3s0.4,0.1,0.7,0.1c0.1,0.1,0.1,0.2,0.1,0.4s0,0.3-0.1,0.4
			c-1.1,0-1.9,0-2.4,0c-0.2,0-0.7,0-1.3,0c-0.1,0-0.1,0-0.1-0.1c-0.1-0.4-0.3-1-0.9-1.7l-3.8-4.7c-0.5-0.6-1.1-0.9-2-0.9V17.3z"/>
		<path d="M56.4,17.3c0,1,0.1,1.6,0.4,1.8s0.8,0.4,1.7,0.4c0.1,0.1,0.1,0.2,0.1,0.4s0,0.3-0.1,0.4c-1.4,0-2.5,0-3.1,0
			c-0.6,0-1.7,0-3.1,0c-0.1-0.1-0.1-0.2-0.1-0.4s0-0.3,0.1-0.4c0.9,0,1.5-0.2,1.7-0.4s0.4-0.8,0.4-1.8V7.7c0-1-0.1-1.6-0.4-1.8
			s-0.8-0.4-1.7-0.4c-0.1-0.1-0.1-0.2-0.1-0.4s0-0.3,0.1-0.4c1.5,0,2.5,0,3.1,0c0.7,0,1.7,0,3.1,0c0.1,0.1,0.1,0.2,0.1,0.4
			s0,0.3-0.1,0.4c-0.9,0-1.5,0.2-1.7,0.4s-0.4,0.8-0.4,1.8V17.3z"/>
		<path d="M62.5,20.2c-0.8,0-1.9,0-3.1,0c-0.1-0.1-0.1-0.2-0.1-0.4s0-0.3,0.1-0.4c0.9,0,1.5-0.2,1.7-0.4s0.4-0.8,0.4-1.8V7.7
			c0-1-0.1-1.6-0.4-1.8s-0.8-0.4-1.7-0.4c-0.1-0.1-0.1-0.2-0.1-0.4s0-0.3,0.1-0.4c1.5,0,2.5,0,3.1,0c0.6,0,1.7,0,3.1,0
			c0.1,0.1,0.1,0.2,0.1,0.4s0,0.3-0.1,0.4c-0.9,0-1.5,0.2-1.7,0.4s-0.4,0.8-0.4,1.8v9.9c0,0.6,0.1,1,0.3,1.3s0.6,0.4,1,0.4h1.5
			c1.2,0,2-0.3,2.6-0.8s1-1.3,1.3-2.3c0.3,0,0.5,0,0.8,0.1c-0.2,1.4-0.4,2.7-0.6,4c-1.5,0-2.4,0-2.9,0H62.5z"/>
		<path d="M87.6,12.3c0,2-0.5,3.7-1.5,5.1c-0.7,1-1.5,1.7-2.6,2.2s-2.2,0.8-3.5,0.8c-2.1,0-3.9-0.7-5.3-2.1s-2.2-3.3-2.2-5.6
			c0-2.4,0.7-4.4,2-6s3.1-2.4,5.4-2.4c2.2,0,4.1,0.7,5.5,2.1S87.6,9.9,87.6,12.3z M79.6,5.3c-1.3,0-2.4,0.6-3.4,1.8s-1.4,3-1.4,5.3
			c0,2.2,0.6,4,1.7,5.3s2.5,2,4,2c1.4,0,2.6-0.6,3.5-1.8s1.3-2.9,1.3-5c0-2.3-0.5-4.2-1.6-5.5S81.2,5.3,79.6,5.3z"/>
		<path d="M92.6,7.7v6.2c0,0.7,0,1.2,0,1.7s0.1,0.9,0.3,1.5s0.5,1,0.8,1.4c0.8,0.8,1.7,1.1,2.8,1.1c0.8,0,1.5-0.1,2-0.4
			s1-0.6,1.3-0.9s0.5-0.8,0.7-1.4s0.3-1.1,0.3-1.6s0.1-1,0.1-1.7V7.7c0-0.5,0-0.9-0.1-1.1s-0.2-0.5-0.4-0.6s-0.4-0.2-0.6-0.3
			s-0.6-0.1-1.1-0.1c-0.1-0.1-0.1-0.2-0.1-0.4s0-0.3,0.1-0.4c1.5,0,2.4,0,2.8,0c0.4,0,1.2,0,2.4,0c0.1,0.1,0.1,0.2,0.1,0.4
			s0,0.3-0.1,0.4c-0.8,0.1-1.3,0.3-1.5,0.5s-0.3,0.8-0.3,1.7v5.5c0,1.1-0.1,2.1-0.3,3s-0.5,1.6-0.9,2.3s-1.1,1.2-1.9,1.5
			s-1.8,0.5-3,0.5c-0.7,0-1.3-0.1-1.9-0.2s-1.2-0.4-1.8-0.8s-1.1-1-1.4-1.8s-0.5-1.8-0.5-3v-7c0-0.9-0.1-1.5-0.3-1.8
			s-0.7-0.4-1.5-0.4c-0.1-0.1-0.1-0.2-0.1-0.4s0-0.3,0.1-0.4c1.2,0,2.2,0,2.9,0s1.7,0,3.2,0c0.1,0.1,0.1,0.2,0.1,0.4s0,0.3-0.1,0.4
			c-1,0-1.6,0.2-1.8,0.4S92.6,6.7,92.6,7.7z"/>
		<path d="M107.9,20.2c-0.8,0-1.9,0-3.1,0c-0.1-0.1-0.1-0.2-0.1-0.4s0-0.3,0.1-0.4c0.9,0,1.5-0.2,1.7-0.4s0.4-0.8,0.4-1.8V7.7
			c0-1-0.1-1.6-0.4-1.8s-0.8-0.4-1.7-0.4c-0.1-0.1-0.1-0.2-0.1-0.4s0-0.3,0.1-0.4c1.5,0,2.5,0,3.1,0c0.6,0,1.7,0,3.1,0
			c0.1,0.1,0.1,0.2,0.1,0.4s0,0.3-0.1,0.4c-0.9,0-1.5,0.2-1.7,0.4s-0.4,0.8-0.4,1.8v9.9c0,0.6,0.1,1,0.3,1.3s0.6,0.4,1,0.4h1.5
			c1.2,0,2-0.3,2.6-0.8s1-1.3,1.3-2.3c0.3,0,0.5,0,0.8,0.1c-0.2,1.4-0.4,2.7-0.6,4c-1.5,0-2.4,0-2.9,0H107.9z"/>
	</g>
	<g class="st174">
		<path d="M127.8,16.5c0,1.2,0.2,2,0.5,2.3c0.3,0.3,1.2,0.5,2.5,0.5c0.1,0.1,0.2,0.3,0.2,0.5s0,0.4-0.2,0.5c-2.1,0-3.5-0.1-4.3-0.1
			c-0.9,0-2.3,0-4.3,0.1c-0.1-0.1-0.1-0.2-0.1-0.5s0-0.4,0.1-0.5c1.3,0,2.1-0.2,2.5-0.5s0.5-1.1,0.5-2.3V4.5c0-1-0.1-1.8-0.3-2.3
			c-0.2-0.5-0.6-0.8-1.1-0.8h-1.5c-1.1,0-1.9,0.2-2.6,0.7c-0.7,0.5-1.2,1.3-1.5,2.5c-0.5,0-0.8-0.1-1.1-0.2c0.4-1.8,0.7-3.3,0.8-4.5
			c0-0.1,0-0.1,0.1-0.1c2.1,0.2,4.5,0.2,7.2,0.2h2.7c2.7,0,5.1-0.1,6.9-0.2c0.1,0,0.1,0,0.1,0.1c0,1.4,0.2,2.8,0.4,4.4
			c-0.2,0.1-0.6,0.2-1,0.2c-0.3-1.2-0.7-2-1.4-2.5c-0.7-0.5-1.7-0.7-2.9-0.7h-0.7c-0.5,0-0.9,0.3-1.1,0.8c-0.2,0.5-0.3,1.3-0.3,2.4
			V16.5z"/>
	</g>
</g>
<g id="Calque_3">
</g>
</svg>
