<?xml version="1.0" encoding="utf-8"?>
<!-- Generator: Adobe Illustrator 21.0.0, SVG Export Plug-In . SVG Version: 6.00 Build 0)  -->
<svg version="1.1" id="Calque_1" xmlns="http://www.w3.org/2000/svg" xmlns:xlink="http://www.w3.org/1999/xlink" x="0px" y="0px"
	 viewBox="0 0 373.5 153.5" style="enable-background:new 0 0 373.5 153.5;" xml:space="preserve">
<style type="text/css">
	.st0{fill:#3C5AA5;}
	.st1{fill:#FFCC05;}
	.st2{fill:#C7A20D;}
	.st3{fill:#213364;}
	.st4{fill:url(#SVGID_1_);}
	.st5{fill:url(#SVGID_2_);}
	.st6{fill:url(#SVGID_3_);}
	.st7{fill:url(#SVGID_4_);}
	.st8{fill:url(#SVGID_5_);}
	.st9{fill:url(#SVGID_6_);}
	.st10{fill:url(#SVGID_7_);}
	.st11{fill:url(#SVGID_8_);}
	.st12{fill:#3A62AC;}
	.st13{fill:url(#SVGID_9_);}
	.st14{fill:url(#SVGID_10_);}
</style>
<g>
	<path class="st0" d="M60.9,146.3l-28.2-86l-9.4,2.8L7.9,20.5L72,0l19.8,87.5l33.7-13.6l14.2,48.9L60.9,146.3z M47,33.3l28.1,85.9
		l37.4-11.2l-1.3-4.5l-35.1,14.2L55.8,28.1l-21.3,6.6l0.9,1.9L47,33.3z"/>
	<polygon class="st1" points="126.3,112.7 118.5,86 84.1,99.9 64.1,11.4 22.3,24.1 32.2,46.1 40,44.2 68.2,130.1 	"/>
	<polygon class="st2" points="57.7,13.2 80.6,97.6 84.1,99.9 64.1,11.4 	"/>
	<polygon class="st2" points="115.3,97.9 120.2,114.6 126.3,112.7 121.5,96.2 117.3,96.9 	"/>
	<path class="st3" d="M139.6,122.7l-8.5,6.4l-76.8,24.2c0,0,5.4-6.1,6.5-7.1S139.6,122.7,139.6,122.7z"/>
	<path class="st2" d="M59.8,20.1c-0.3,0.1-34.9,9.4-34.9,9.4l-2.5-5.5l41.9-12.7l-4.7,5.7L59.8,20.1z"/>
	<g>
		
			<linearGradient id="SVGID_1_" gradientUnits="userSpaceOnUse" x1="27.1272" y1="7.1981" x2="42.7245" y2="7.1981" gradientTransform="matrix(0.997 7.707183e-02 -7.707183e-02 0.997 -9.6288 54.8439)">
			<stop  offset="0" style="stop-color:#145A9F"/>
			<stop  offset="1" style="stop-color:#1D2E62"/>
		</linearGradient>
		<polygon class="st4" points="32.8,60.3 23.3,63 23.3,62.9 16.5,69.2 23.7,66.6 23.7,66.6 32.8,60.3 		"/>
		
			<linearGradient id="SVGID_2_" gradientUnits="userSpaceOnUse" x1="39.3387" y1="57.1892" x2="9.6669" y2="-51.6071" gradientTransform="matrix(0.997 7.707183e-02 -7.707183e-02 0.997 -9.6288 54.8439)">
			<stop  offset="0" style="stop-color:#145A9F"/>
			<stop  offset="1" style="stop-color:#1D2E62"/>
		</linearGradient>
		<polygon class="st5" points="7.9,20.5 0,25.2 16.4,69.2 16.5,69.2 23.3,62.9 		"/>
		
			<linearGradient id="SVGID_3_" gradientUnits="userSpaceOnUse" x1="31.8622" y1="-10.9203" x2="53.6045" y2="42.16" gradientTransform="matrix(0.997 7.707183e-02 -7.707183e-02 0.997 -9.6288 54.8439)">
			<stop  offset="0" style="stop-color:#145A9F"/>
			<stop  offset="1" style="stop-color:#1D2E62"/>
		</linearGradient>
		<polygon class="st6" points="60.9,146.3 32.8,60.3 23.7,66.6 54.3,153.4 		"/>
	</g>
</g>
<g>
	
		<linearGradient id="SVGID_4_" gradientUnits="userSpaceOnUse" x1="230.3873" y1="4.3864" x2="227.6373" y2="36.6364" gradientTransform="matrix(0.9932 0.1165 -0.1165 0.9932 -16.5313 62.0962)">
		<stop  offset="0" style="stop-color:#145A9F"/>
		<stop  offset="1" style="stop-color:#1D2E62"/>
	</linearGradient>
	<polygon class="st7" points="208.4,99.5 200.7,130.5 208.3,126.3 215,94.3 	"/>
	<g>
		<g>
			<path class="st0" d="M265,138.3l-38.8-8.1l-2.1,2.1l0.6-2.4l-16.4-3.6l19-93.3l-9,0.3l8.1-30.6l54.5,1L259.1,86l17.4,2.4
				L265,138.3z M244.7,111.6l3.7,0.8l1.2-5.4l-0.4,0L244.7,111.6z M251.4,25.1l-3.4,17l4.5-16.9L251.4,25.1z"/>
			<polyline class="st1" points="257,122.7 263.4,95 245.6,92.6 245.6,92.7 266.9,11.7 235.1,11.2 233,19.2 241.2,18.9 221.8,115.1 
							"/>
			<polygon class="st2" points="245.5,92.6 241.9,92.2 261,11.7 266.9,11.7 			"/>
			<polygon class="st2" points="262.4,15.5 234,15.2 235.1,11.2 261.4,11.7 262.1,15.3 			"/>
			<polygon class="st2" points="258.4,94.3 263.4,95 257,122.7 251.4,121.6 			"/>
			<polygon class="st3" points="255.1,141.7 200.7,130.5 208.3,126.3 265.1,138.3 			"/>
		</g>
		
			<linearGradient id="SVGID_5_" gradientUnits="userSpaceOnUse" x1="229.4926" y1="-57.7212" x2="230.1592" y2="-92.0545" gradientTransform="matrix(0.9932 0.1165 -0.1165 0.9932 -16.5313 62.0962)">
			<stop  offset="0" style="stop-color:#145A9F"/>
			<stop  offset="1" style="stop-color:#1D2E62"/>
		</linearGradient>
		<polygon class="st8" points="219,6.8 226.4,2.6 221.5,21.9 215.3,20.9 		"/>
	</g>
</g>
<path class="st2" d="M165.9,43.7c0,0,18.2,11.8-0.1,43.7C165.8,87.4,174.9,66.8,165.9,43.7z"/>
<path class="st2" d="M225,68.8"/>
<g>
	<linearGradient id="SVGID_6_" gradientUnits="userSpaceOnUse" x1="142.3294" y1="11.6562" x2="144.1986" y2="35.9553">
		<stop  offset="0" style="stop-color:#145A9F"/>
		<stop  offset="1" style="stop-color:#1D2E62"/>
	</linearGradient>
	<polygon class="st9" points="139.9,17 146.3,12.4 146.7,30.5 139.9,30.7 	"/>
	<linearGradient id="SVGID_7_" gradientUnits="userSpaceOnUse" x1="121.2309" y1="63.9034" x2="193.5052" y2="107.8288">
		<stop  offset="0" style="stop-color:#145A9F"/>
		<stop  offset="1" style="stop-color:#1D2E62"/>
	</linearGradient>
	<path class="st10" d="M152.4,86.5c-7.2,12.8,4.6,29.6,22,35.2s38.2,4,48.7-12.2c10.5-16.1-19.4-13.8-19.4-13.8L152.4,86.5z"/>
	<g>
		<path class="st0" d="M195.7,120.6c-5,0-9.9-0.8-14.8-2.4c-5.1-1.6-9.6-4.1-13.4-7.3l-0.1-0.1c-3.1-2.7-5.6-6.5-7.5-11.3
			c-1.6-3.9-2.8-8.5-3.8-13.8c-0.9-4.9-1.5-10-1.9-15.2c-0.4-5.1-0.6-10.2-0.6-15.1c0-3.8,0.1-7.3,0.3-10.6l-6.7-1.6l-1-30.8
			l52.5,4.3l0,0.6l36.7,2.8l1.2,8.1c0.6,4.2,1.2,9.1,1.6,14.6c0.4,5.5,0.6,11,0.6,16.5c0,6.1-0.3,12-0.9,17.3
			c-0.6,5.7-1.7,10.9-3.2,15.4c-1,3.1-2.8,6.3-5.5,9.8c-2.3,3-4.8,5.8-7.5,8.3c-2.8,2.6-5.3,4.6-7.6,6l-0.3,0.2
			C208.7,119.2,202.6,120.6,195.7,120.6z M180.9,95.3c1.8,1.5,3.9,2.6,6.4,3.4c2.8,0.9,5.6,1.4,8.4,1.4c3.3,0,5.9-0.5,7.9-1.6
			c0.7-0.4,2-1.4,4.1-3.4c1.8-1.7,3.6-3.7,5.2-5.7c1.7-2.3,2.2-3.5,2.3-3.8c1-3.1,1.8-6.8,2.2-11.1c0.5-4.7,0.8-9.7,0.8-15.1
			c0-4.9-0.2-10-0.5-15c-0.1-1.7-0.3-3.3-0.4-4.9l-3.7-0.3c0.2,2.3,0.3,4.5,0.4,6.6c0.2,3.5,0.4,6.6,0.6,9.5l0,0.1
			c0.1,3,0.2,6.1,0.2,9.3c0,9.1-0.8,15.5-2.6,20.1c-1.1,2.9-2.6,5.5-4.4,7.6c-4,4.6-8.5,5.3-10.9,5.3c-4.3,0-10.3-2-14.4-11.3
			c-0.8-1.8-1.8-4.8-2.8-13c-0.7-5.4-1.3-11.6-1.7-18.5c-0.4-6.9-0.7-13.3-0.7-19c0-0.1,0-0.2,0-0.2l-1.7-0.1l-0.4,2.7
			c-0.6,4.7-0.9,10.5-0.9,17.2c0,4.4,0.2,9,0.5,13.6c0.3,4.5,0.9,8.9,1.6,13.1c0.7,3.9,1.6,7.2,2.6,9.8
			C179.9,94.2,180.7,95.1,180.9,95.3z M201.8,79L201.8,79L201.8,79z"/>
	</g>
	<g>
		<path class="st1" d="M187.8,23.6c-0.2,2.8-0.3,6-0.3,9.7c0,5.5,0.2,11.6,0.7,18.3c0.4,6.7,1,12.7,1.6,17.9c0.7,5.2,1.3,8.6,2,10.1
			c1.5,3.4,3.2,5.2,5,5.2c1.1,0,2.1-0.6,3.1-1.8c1-1.2,1.9-2.7,2.6-4.5c1.3-3.3,1.9-8.8,1.9-16.4c0-3.1-0.1-6-0.2-8.9
			c-0.2-2.8-0.3-5.9-0.6-9.4c-0.2-3.4-0.5-7-0.7-10.8c-0.3-3.8-0.4-6.3-0.5-7.6l23.9,1.8c0.6,3.9,1.1,8.5,1.5,13.8
			c0.4,5.3,0.6,10.5,0.6,15.7c0,5.8-0.3,11.2-0.8,16.2c-0.5,5-1.4,9.4-2.7,13.2c-0.7,2-2,4.3-3.9,6.9s-4.1,4.9-6.3,7
			s-4.3,3.7-5.9,4.7c-3.6,2-7.9,3-13.1,3c-3.9,0-7.8-0.6-11.6-1.9c-3.8-1.2-7.1-3-10-5.4c-1.9-1.6-3.4-4.1-4.7-7.4
			c-1.3-3.3-2.4-7.2-3.2-11.8c-0.8-4.6-1.4-9.3-1.8-14.2c-0.4-4.9-0.5-9.6-0.5-14.3c0-7.2,0.3-13.4,1-18.6l-7.7-1.8L156.9,21
			L187.8,23.6z"/>
	</g>
	<path class="st2" d="M207.3,105.8c3.5-2.2,10.7-5.8,15.9-15.8c1.2-2.3,2.1-5.3,3.1-8.3c5.2-16.1,0.1-54.4,0.1-54.4l-5.1-0.7
		c0,0,5.2,14.2,3.8,38.5S217.4,97.5,207.3,105.8z"/>
	<path class="st2" d="M183.8,23.1l4,0.5c0,0-0.7,36.8,2.6,50.2s7,10.5,7,10.5s-10,5.7-11.3-20.9C184.8,37,183.8,23.1,183.8,23.1z"/>
	<polygon class="st2" points="225.8,27.1 202.5,25.5 202.6,30.3 226.9,31.3 	"/>
	<polygon class="st2" points="185.9,26 156.8,22.8 156.9,21 186.3,23.6 	"/>
</g>
<g>
	<linearGradient id="SVGID_8_" gradientUnits="userSpaceOnUse" x1="103.4137" y1="72.8397" x2="131.8297" y2="99.0414">
		<stop  offset="0" style="stop-color:#145A9F"/>
		<stop  offset="1" style="stop-color:#1D2E62"/>
	</linearGradient>
	<path class="st11" d="M167.3,88.9c-13,21-36.2,34.5-60.9,26.1s-24.2-42.3-9.5-64.6s-1.7,34.2-1.7,34.2l11.3,14.1l18.1,5l17.7-3.5
		c0,0,19-13.3,19.5-13.3s4.8,1.9,4.8,1.9H167.3z"/>
	<g>
		<path class="st0" d="M129.3,110.8c-9,0-17.7-2.6-24.5-7.2C88.2,92.3,84.1,71.1,94.8,52c7.9-14.1,19.8-23.7,33.5-27.1
			c11.1-2.8,22.3-1,31.4,4.9c8.6,5.5,14.2,14.2,16,24.5c2.2,13-2,27.4-11.4,39.6C155,105.7,141.9,110.8,129.3,110.8z M138.5,48
			c-1.4,0-2.9,0.2-4.4,0.6c-7,1.7-13.6,7.3-18.1,15.3c-5.3,9.5-2.2,16.3,2.4,19.5c7.1,4.8,19.8,4.2,26.5-4.5
			c5.2-6.7,7.7-14.4,6.6-20.6c-0.6-3.6-2.4-6.3-5.2-8.1h0C144.1,48.8,141.4,48,138.5,48z"/>
	</g>
	<g>
		<path class="st1" d="M153,37.5c-14.1-9.1-35.7-3.3-47.6,17.9c-8.3,14.9-3.8,28.7,6.2,35.5c12.2,8.3,32.1,6.9,43-7.1
			C167.6,67.2,167.2,46.7,153,37.5z M142.5,68.4c-7.9,2.1-23.1-0.7-22.1-15c1-14.3,17.8-12.9,17.8-12.9s-15.5,9.3-2.8,15.4
			c12.3,5.8,14-6,14-8.3C155.8,51.9,150.4,66.3,142.5,68.4z"/>
	</g>
	<path class="st2" d="M140.1,73.2c-7.9,2.1-23.1-0.7-22.1-15c1-14.3,17.3-16.4,17.3-16.4s-15.1,13-2.3,18.8
		c11.7,5.3,16.9-6.8,16.9-9.1C156.3,55.8,148,71.1,140.1,73.2z"/>
	<path class="st2" d="M146,55.8c0,0,0.6-2.8-0.8-4.7l4.1-3.5c0,0,0.8,2.4-1.2,5.5C146.1,56.2,146,55.8,146,55.8z"/>
	<path class="st2" d="M138.1,40.6l-0.2,4.7c-3.7,0.1-8.5,4.6-6.5,8c2,3.4-3.5-5.8-3.4-5.9c0.1-0.1,1.7-3.3,3.1-4.1
		c1.4-0.8,4.7-2.1,4.8-2.2c0.1,0,2.1-0.6,2.1-0.6"/>
	<path class="st12" d="M142.6,68.5c-7.9,2.1-23.1-0.7-22.1-15c1-14.3,17.8-12.9,17.8-12.9s-15.6,9.5-2.8,15.4c11.7,5.3,14-6,14-8.3
		C155.9,51.9,150.5,66.4,142.6,68.5z"/>
	<path class="st2" d="M105,56c0,0,17.8-32.1,44.3-20.4s12.3,40.4,7.3,45.6c0,0,11.8-26.3-7.6-39.4C126.6,26.7,105,56,105,56z"/>
</g>
<g>
	<g>
		<g>
			<path class="st0" d="M308.3,147.9l-40.4-21.5l23.5-57.8l-28.4-12.9l18.2-36.4l92.4,36.2l-16,39.9L334,86.6L308.3,147.9z
				 M295.3,117.1c0.5,0.3,1.1,0.6,1.7,0.9l24.8-59.2l-2.3-0.9L295.3,117.1z"/>
		</g>
		<g>
			<path class="st1" d="M328.3,69.9l-25.4,60.5l-2.7-1.3c-1.8-0.8-4-1.9-6.6-3.3c-2.7-1.4-5-2.7-7.1-4c-2.1-1.3-3.5-2.4-4.4-3.4
				l23.8-58.2l-27.7-12.5l8.6-17.2L359.5,59l-7.9,19.7L328.3,69.9z"/>
		</g>
		<polygon class="st2" points="345,76.2 352.6,56.5 359.5,59 351.6,78.7 		"/>
		<polygon class="st2" points="328.3,69.9 321,73.7 296.8,127.5 302.9,130.4 		"/>
		<polygon class="st3" points="357.4,95.4 346.1,98.9 331.1,93.9 334,86.6 		"/>
		<polygon class="st2" points="285.3,33.5 286.6,30.5 359.5,59 357.3,61.4 		"/>
	</g>
	
		<linearGradient id="SVGID_9_" gradientUnits="userSpaceOnUse" x1="269.5034" y1="-30.1213" x2="287.5034" y2="-82.6213" gradientTransform="matrix(0.9921 0.1255 -0.1255 0.9921 -14.6163 59.23)">
		<stop  offset="0" style="stop-color:#145A9F"/>
		<stop  offset="1" style="stop-color:#1D2E62"/>
	</linearGradient>
	<polygon class="st13" points="273.7,22.8 255.6,59 262.9,55.7 281.1,19.3 	"/>
	<g>
		<polygon class="st3" points="291.4,68.5 262.9,55.7 255.6,59 285.2,71.3 285.2,71.3 291.4,68.5 		"/>
		
			<linearGradient id="SVGID_10_" gradientUnits="userSpaceOnUse" x1="293.6373" y1="-27.7989" x2="293.6373" y2="34.4283" gradientTransform="matrix(0.9921 0.1255 -0.1255 0.9921 -14.6163 59.23)">
			<stop  offset="0" style="stop-color:#145A9F"/>
			<stop  offset="1" style="stop-color:#1D2E62"/>
		</linearGradient>
		<polygon class="st14" points="285.2,71.3 261.2,130.1 267.8,126.4 291.4,68.5 		"/>
	</g>
	<polygon class="st3" points="302.1,149.4 308.3,147.9 267.8,126.4 261.2,130.1 	"/>
</g>
</svg>
