<?xml version="1.0" encoding="utf-8"?>
<!-- Generator: Adobe Illustrator 25.2.1, SVG Export Plug-In . SVG Version: 6.00 Build 0)  -->
<svg version="1.1" xmlns="http://www.w3.org/2000/svg" xmlns:xlink="http://www.w3.org/1999/xlink" x="0px" y="0px"
	 viewBox="0 0 32.5 32.6" style="enable-background:new 0 0 32.5 32.6;" xml:space="preserve">
<style type="text/css">
	.st0{fill:#FFFFFF;}
	.st1{fill:#F6F5F5;}
	.st2{fill:#231F20;}
	.st3{fill:#2B3C41;}
	.st4{clip-path:url(#SVGID_2_);}
	.st5{clip-path:url(#SVGID_4_);}
	.st6{fill:#4B58A3;}
	.st7{fill:#D2A639;}
	.st8{fill:#1F968B;}
	.st9{fill:#6DB64C;}
	.st10{fill:#B5204D;}
	.st11{fill:#CCD7ED;}
	.st12{clip-path:url(#SVGID_6_);}
	.st13{fill:#EC365C;}
	.st14{fill:#939598;}
	.st15{fill:#7E8283;}
	.st16{fill:#3C5AA5;}
	.st17{fill:#213364;}
	.st18{fill:url(#SVGID_7_);}
	.st19{fill:url(#SVGID_8_);}
	.st20{fill:url(#SVGID_9_);}
	.st21{fill:url(#l1_7_);}
	.st22{fill:url(#SVGID_10_);}
	.st23{fill:url(#SVGID_11_);}
	.st24{fill:url(#SVGID_12_);}
	.st25{fill:url(#SVGID_13_);}
	.st26{fill:url(#SVGID_14_);}
	.st27{fill:#3A62AC;}
	.st28{fill:url(#SVGID_15_);}
	.st29{fill:url(#SVGID_16_);}
	.st30{fill-opacity:0;stroke:#FFFFFF;stroke-width:3;}
	.st31{fill:#FFCC05;}
	.st32{fill:#B28E03;}
	.st33{fill:url(#SVGID_17_);}
	.st34{fill:url(#SVGID_18_);}
	.st35{fill:url(#SVGID_19_);}
	.st36{fill:url(#l1_8_);}
	.st37{fill:url(#SVGID_20_);}
	.st38{fill:url(#SVGID_21_);}
	.st39{fill:url(#SVGID_22_);}
	.st40{fill:url(#SVGID_23_);}
	.st41{fill:url(#SVGID_24_);}
	.st42{fill:url(#SVGID_25_);}
	.st43{fill:url(#SVGID_26_);}
	.st44{fill:#332314;}
	.st45{fill:none;}
	.st46{fill:#F9F9F9;}
	.st47{fill:#DB1233;}
	.st48{fill:#27AAFE;stroke:#231F20;stroke-width:2;stroke-miterlimit:10;}
	.st49{fill:#F2CD16;}
	.st50{fill:#FE120C;}
	.st51{fill:#61B16C;}
	.st52{fill:none;stroke:#231F20;stroke-width:3.66;stroke-miterlimit:10;}
	.st53{fill:none;stroke:#231F20;stroke-width:3;stroke-linecap:round;stroke-miterlimit:10;}
	.st54{fill:#9E549E;}
	.st55{fill:#D1D0C8;stroke:#231F20;stroke-width:3.6666;stroke-miterlimit:10;}
	.st56{fill:#231F20;stroke:#231F20;stroke-width:3.6666;stroke-miterlimit:10;}
	.st57{fill:#FE120C;stroke:#231F20;stroke-width:3.6666;stroke-miterlimit:10;}
	.st58{fill:#F2CD16;stroke:#231F20;stroke-width:2;stroke-linecap:round;stroke-miterlimit:10;}
	.st59{fill:none;stroke:#FE120C;stroke-width:2;stroke-linecap:round;stroke-miterlimit:10;}
	.st60{fill:#FFFFFF;stroke:#231F20;stroke-width:2;stroke-miterlimit:10;}
	.st61{fill:#FE120C;stroke:#231F20;stroke-width:2;stroke-miterlimit:10;}
	.st62{fill:#130C0A;}
	.st63{fill:none;stroke:#231F20;stroke-width:2;stroke-linecap:round;stroke-miterlimit:10;}
	.st64{fill:#1A335A;}
	.st65{fill:#B93824;}
	.st66{fill:#E6E0DA;}
	.st67{fill:#B73828;}
	.st68{fill:#F2CD16;stroke:#231F20;stroke-width:2;stroke-linecap:round;stroke-linejoin:round;stroke-miterlimit:10;}
	.st69{fill:none;stroke:#FE120C;stroke-width:2;stroke-linecap:round;stroke-linejoin:round;stroke-miterlimit:10;}
	.st70{fill:#D1D0C8;stroke:#231F20;stroke-width:3;stroke-miterlimit:10;}
	.st71{fill:#FE120C;stroke:#231F20;stroke-width:3;stroke-miterlimit:10;}
	.st72{fill:#D1D0C8;}
	.st73{fill:#5D439C;}
	.st74{fill:#ED018C;}
	.st75{fill:#1A1818;}
	.st76{fill:#E2E0E3;}
	.st77{fill:#0D0299;}
	.st78{fill:url(#SVGID_29_);}
	.st79{fill:#27AAFE;}
	.st80{fill:url(#SVGID_30_);}
	.st81{fill:url(#SVGID_31_);}
	.st82{fill:url(#SVGID_32_);}
	.st83{fill:url(#l1_15_);}
	.st84{fill:url(#SVGID_33_);}
	.st85{fill:url(#SVGID_34_);}
	.st86{fill:url(#SVGID_35_);}
	.st87{fill:url(#SVGID_36_);}
	.st88{fill:url(#SVGID_37_);}
	.st89{fill:url(#SVGID_38_);}
	.st90{fill:url(#SVGID_39_);}
	.st91{fill:url(#SVGID_40_);}
	.st92{fill:url(#SVGID_41_);}
	.st93{fill:url(#SVGID_42_);}
	.st94{fill:url(#l1_16_);}
	.st95{fill:url(#SVGID_43_);}
	.st96{fill:url(#SVGID_44_);}
	.st97{fill:url(#SVGID_45_);}
	.st98{fill:url(#SVGID_46_);}
	.st99{fill:url(#SVGID_47_);}
	.st100{fill:url(#SVGID_48_);}
	.st101{fill:url(#SVGID_49_);}
	.st102{fill:none;stroke:#FFFFFF;stroke-miterlimit:10;}
	.st103{fill:none;stroke:#1A1818;stroke-width:3;stroke-miterlimit:10;}
	.st104{fill:#D1D0C8;stroke:#1A1818;stroke-width:3;stroke-miterlimit:10;}
	.st105{opacity:0.9;fill:#010216;}
	.st106{fill:#E8E8E8;}
	.st107{clip-path:url(#SVGID_53_);}
	.st108{fill:#CFDAFF;}
	.st109{fill:#0072D8;}
	.st110{fill:#070707;}
	.st111{fill:none;stroke:#070707;stroke-miterlimit:10;}
	.st112{fill:#A05B22;}
	.st113{fill:#D48233;}
	.st114{fill:url(#SVGID_54_);}
	.st115{fill:url(#SVGID_55_);}
	.st116{fill:url(#SVGID_56_);}
	.st117{fill:url(#l1_17_);}
	.st118{fill:url(#SVGID_57_);}
	.st119{fill:url(#SVGID_58_);}
	.st120{fill:url(#SVGID_59_);}
	.st121{fill:url(#SVGID_60_);}
	.st122{fill:url(#SVGID_61_);}
	.st123{fill:url(#SVGID_62_);}
	.st124{fill:url(#SVGID_63_);}
	.st125{fill:url(#SVGID_64_);}
	.st126{fill:url(#SVGID_65_);}
	.st127{fill:url(#SVGID_66_);}
	.st128{fill:url(#l1_18_);}
	.st129{fill:url(#SVGID_67_);}
	.st130{fill:url(#SVGID_68_);}
	.st131{fill:url(#SVGID_69_);}
	.st132{fill:url(#SVGID_70_);}
	.st133{fill:url(#SVGID_71_);}
	.st134{fill:url(#SVGID_72_);}
	.st135{fill:url(#SVGID_73_);}
	.st136{fill:#ED7C00;}
	.st137{fill:#5A5AFF;}
	.st138{fill:#D1D2D3;}
	.st139{fill:#E6E7E8;}
	.st140{fill:url(#SVGID_84_);}
	.st141{fill:url(#SVGID_85_);}
	.st142{fill:url(#SVGID_86_);}
	.st143{fill:url(#l1_19_);}
	.st144{fill:url(#SVGID_87_);}
	.st145{fill:url(#SVGID_88_);}
	.st146{fill:url(#SVGID_89_);}
	.st147{fill:url(#SVGID_90_);}
	.st148{fill:url(#SVGID_91_);}
	.st149{fill:url(#SVGID_92_);}
	.st150{fill:url(#SVGID_93_);}
	.st151{fill:url(#SVGID_94_);}
	.st152{fill:url(#SVGID_95_);}
	.st153{fill:url(#SVGID_96_);}
	.st154{fill:url(#l1_20_);}
	.st155{fill:url(#SVGID_97_);}
	.st156{fill:url(#SVGID_98_);}
	.st157{fill:url(#SVGID_99_);}
	.st158{fill:url(#SVGID_100_);}
	.st159{fill:url(#SVGID_101_);}
	.st160{fill:url(#SVGID_102_);}
	.st161{fill:url(#SVGID_103_);}
	.st162{fill:none;stroke:#0280FF;stroke-miterlimit:10;}
	.st163{fill:#7BAAAD;}
	.st164{enable-background:new    ;}
	.st165{fill:#FF1A1A;stroke:#231F20;stroke-miterlimit:10;}
	.st166{fill:#0068FF;}
	.st167{fill:url(#SVGID_110_);}
	.st168{fill:url(#SVGID_111_);}
	.st169{fill:url(#SVGID_112_);}
	.st170{fill:url(#SVGID_113_);}
	.st171{fill:url(#l1_21_);}
	.st172{fill:url(#SVGID_114_);}
	.st173{fill:url(#SVGID_115_);}
	.st174{fill:url(#SVGID_116_);}
	.st175{fill:url(#SVGID_117_);}
	.st176{fill:url(#SVGID_118_);}
	.st177{fill:url(#SVGID_119_);}
	.st178{fill:url(#SVGID_120_);}
	.st179{fill:url(#SVGID_121_);}
	.st180{fill:url(#SVGID_122_);}
	.st181{fill:url(#SVGID_123_);}
	.st182{fill:url(#l1_22_);}
	.st183{fill:url(#SVGID_124_);}
	.st184{fill:url(#SVGID_125_);}
	.st185{fill:url(#SVGID_126_);}
	.st186{fill:url(#SVGID_127_);}
	.st187{fill:url(#SVGID_128_);}
	.st188{fill:url(#SVGID_129_);}
	.st189{fill:url(#SVGID_130_);}
	.st190{fill:url(#SVGID_131_);}
	.st191{fill:#FF3E60;}
	.st192{fill:#010101;}
	.st193{fill:#222222;}
	.st194{fill:#0000FF;}
	.st195{fill:none;stroke:#FCFCFC;stroke-miterlimit:10;}
	.st196{fill:none;stroke:#231F20;stroke-miterlimit:10;}
	.st197{fill:none;stroke:#231F20;stroke-linecap:round;stroke-miterlimit:10;}
	.st198{fill:none;stroke:#231F20;stroke-width:4;stroke-miterlimit:10;}
	.st199{fill:#231F20;stroke:#FFFFFF;stroke-width:4;stroke-miterlimit:10;}
	.st200{fill:none;stroke:#858585;stroke-miterlimit:10;}
	.st201{fill:#858585;}
	.st202{fill:none;stroke:#C90027;stroke-miterlimit:10;}
	.st203{fill:#0280FF;}
	.st204{fill:#D7E4EA;}
	.st205{fill:#92FF5A;}
	.st206{fill:none;stroke:#0280FF;stroke-width:8;stroke-miterlimit:10;}
	.st207{fill:#A7A9AC;}
	.st208{fill:#D8E5EA;}
	.st209{fill:#33363A;}
	.st210{fill:#95A2A5;}
	.st211{fill:#808E93;}
	.st212{fill:#A7BBC1;}
	.st213{fill:url(#SVGID_138_);}
	.st214{fill:url(#SVGID_139_);}
	.st215{fill:url(#SVGID_140_);}
	.st216{fill:url(#l1_23_);}
	.st217{fill:url(#SVGID_141_);}
	.st218{fill:url(#SVGID_142_);}
	.st219{fill:url(#SVGID_143_);}
	.st220{fill:url(#SVGID_144_);}
	.st221{fill:url(#SVGID_145_);}
	.st222{fill:url(#SVGID_146_);}
	.st223{fill:url(#SVGID_147_);}
	.st224{fill-opacity:0;stroke:#FFFFFF;stroke-width:1.9588;}
	.st225{fill:url(#SVGID_148_);}
	.st226{fill:url(#SVGID_149_);}
	.st227{fill:url(#SVGID_150_);}
	.st228{fill:url(#l1_24_);}
	.st229{fill:url(#SVGID_151_);}
	.st230{fill:url(#SVGID_152_);}
	.st231{fill:url(#SVGID_153_);}
	.st232{fill:url(#SVGID_154_);}
	.st233{fill:url(#SVGID_155_);}
	.st234{fill:url(#SVGID_156_);}
	.st235{fill:url(#SVGID_157_);}
	.st236{fill:none;stroke:#0280FF;stroke-width:1.3598;stroke-miterlimit:10;}
	.st237{fill:none;stroke:#0280FF;stroke-width:2;stroke-miterlimit:10;}
	.st238{fill:none;stroke:#757575;stroke-miterlimit:10;}
	.st239{fill:#F4F4F4;}
	.st240{fill:#757575;}
	.st241{fill:none;stroke:#757575;stroke-width:1.0633;stroke-miterlimit:10;}
	.st242{fill:none;stroke:#757575;stroke-width:1.0148;stroke-miterlimit:10;}
	.st243{fill:#00AAFF;}
	.st244{fill:none;stroke:#D02100;stroke-miterlimit:10;}
	.st245{fill:none;stroke:#000000;stroke-miterlimit:10;}
	.st246{fill:#8FE3FE;}
	.st247{fill:#F1B653;}
	.st248{fill:none;stroke:#1A1818;stroke-width:1.5;stroke-miterlimit:10;}
	.st249{fill:none;stroke:#241F20;stroke-width:3;stroke-miterlimit:10;}
	.st250{fill:#241F20;}
	.st251{fill:#00ABFF;stroke:#231F20;stroke-miterlimit:10;}
	.st252{fill:#00ABFF;}
	.st253{fill:#EF9D26;}
	.st254{fill:#FFFFFF;stroke:#B26500;stroke-miterlimit:10;}
	.st255{fill:#B26500;}
	.st256{fill:#C7D4D8;}
</style>
<g id="FOND">
</g>
<g id="Calque_3">
	<path class="st253" d="M29.6,4.1h-13L12.9,1H3.2c-1.1,0-2,0.9-2,2v3.1v8.4v3.1c0,1.1,0.9,2,2,2h26.4c1.1,0,2-0.9,2-2V6.1
		C31.6,5,30.7,4.1,29.6,4.1z"/>
	<path class="st2" d="M29.5,32.7H3c-1.6,0-3-1.4-3-3.2V3c0-1.7,1.3-3,3-3h10.1l3.7,3.1h12.7c1.6,0,3,1.3,3,3v23.3
		C32.5,31.2,31.1,32.7,29.5,32.7z M3,2C2.5,2,2,2.5,2,3v26.4c0,0.7,0.5,1.3,1,1.3h26.4c0.6,0,1-0.6,1-1.3V6.1c0-0.6-0.5-1.1-1-1.1
		H16.1L12.4,2H3z"/>
	<path class="st247" d="M29.6,31.7H3.2c-1.1,0-2-1-2-2.2V12.8c0-1.2,0.9-2.2,2-2.2h26.4c1.1,0,2,1,2,2.2v16.7
		C31.6,30.7,30.7,31.7,29.6,31.7z"/>
	<path class="st2" d="M29.5,32.7H3c-1.6,0-3-1.4-3-3.2V12.8c0-1.8,1.3-3.2,3-3.2h26.4c1.6,0,3,1.4,3,3.2v16.7
		C32.5,31.2,31.1,32.7,29.5,32.7z M3,11.5c-0.6,0-1,0.6-1,1.3v16.7c0,0.7,0.5,1.3,1,1.3h26.4c0.6,0,1-0.6,1-1.3V12.8
		c0-0.7-0.5-1.3-1-1.3H3z"/>
	<path class="st255" d="M16.9,15.3l1.5,3c0.1,0.2,0.3,0.3,0.5,0.4l3.3,0.5c0.6,0.1,0.8,0.8,0.4,1.2l-2.4,2.3
		C20,22.8,19.9,23,20,23.2l0.6,3.3c0.1,0.6-0.5,1-1,0.7l-2.9-1.5c-0.2-0.1-0.4-0.1-0.7,0L13,27.2c-0.5,0.3-1.1-0.2-1-0.7l0.6-3.3
		c0-0.2,0-0.5-0.2-0.6L10,20.3c-0.4-0.4-0.2-1.1,0.4-1.2l3.3-0.5c0.2,0,0.4-0.2,0.5-0.4l1.5-3C15.9,14.8,16.6,14.8,16.9,15.3z"/>
</g>
</svg>
