<?xml version="1.0" encoding="utf-8"?>
<!-- Generator: Adobe Illustrator 23.1.1, SVG Export Plug-In . SVG Version: 6.00 Build 0)  -->
<svg version="1.1" xmlns="http://www.w3.org/2000/svg" xmlns:xlink="http://www.w3.org/1999/xlink" x="0px" y="0px"
	 viewBox="0 0 50 50" style="enable-background:new 0 0 50 50;" xml:space="preserve">
<style type="text/css">
	.bst0{fill:#F2CD16;}
	.bst1{fill:#E7F414;stroke:#231F20;stroke-width:2;stroke-linecap:round;stroke-miterlimit:10;}
	.bst2{fill:none;stroke:#FE120C;stroke-width:2;stroke-linecap:round;stroke-miterlimit:10;}
	.bst3{fill:#DB1233;}
	.bst4{fill:#FFFFFF;}
	.bst5{fill:#F6F5F5;}
	.bst6{fill:#231F20;}
	.bst7{fill:#2B3C41;}
	.bst8{clip-path:url(#SVGID_2_);}
	.bst9{clip-path:url(#SVGID_4_);}
	.bst10{fill:#4B58A3;}
	.bst10{fill:#4B58A3;}
	.bst11{fill:#D2A639;}
	.bst12{fill:#1F968B;}
	.bst13{fill:#6DB64C;}
	.bst14{fill:#B5204D;}
	.bst15{fill:#CCD7ED;}
	.bst16{clip-path:url(#SVGID_6_);}
	.bst17{fill:#EC365C;}
	.bst18{fill:#939598;}
	.bst19{fill:#7E8283;}
	.bst20{clip-path:url(#SVGID_8_);}
	.bst21{clip-path:url(#SVGID_10_);}
	.bst22{clip-path:url(#SVGID_12_);}
	.bst23{fill:#3C5AA5;}
	.bst24{fill:#213364;}
	.bst25{fill:url(#SVGID_13_);}
	.bst26{fill:url(#SVGID_14_);}
	.bst27{fill:url(#SVGID_15_);}
	.bst28{fill:url(#l1_1_);}
	.bst29{fill:url(#SVGID_16_);}
	.bst30{fill:url(#SVGID_17_);}
	.bst31{fill:url(#SVGID_18_);}
	.bst32{fill:url(#SVGID_19_);}
	.bst33{fill:url(#SVGID_20_);}
	.bst34{fill:#3A62AC;}
	.bst35{fill:url(#SVGID_21_);}
	.bst36{fill:url(#SVGID_22_);}
	.bst37{fill-opacity:0;stroke:#FFFFFF;stroke-width:3;}
	.bst38{fill:#FFCC05;}
	.bst39{fill:#B28E03;}
	.bst40{fill:url(#SVGID_23_);}
	.bst41{fill:url(#SVGID_24_);}
	.bst42{fill:url(#SVGID_25_);}
	.bst43{fill:url(#l1_4_);}
	.bst44{fill:url(#SVGID_26_);}
	.bst45{fill:url(#SVGID_27_);}
	.bst46{fill:url(#SVGID_28_);}
	.bst47{fill:url(#SVGID_29_);}
	.bst48{fill:url(#SVGID_30_);}
	.bst49{fill:url(#SVGID_31_);}
	.bst50{fill:url(#SVGID_32_);}
	.bst51{fill:#1A335A;}
	.bst52{fill:#332314;}
	.bst53{fill:#E9BE11;}
	.bst54{fill:#B93824;}
	.bst55{fill:#E6E0DA;}
	.bst56{fill:#B73828;}
	.bst57{fill:#EBBE0E;}
	.bst58{fill:#9E549E;}
	.bst59{fill:#D6D6D6;}
	.bst60{fill:#27AAFE;stroke:#231F20;stroke-width:2;stroke-miterlimit:10;}
	.bst61{fill:#F7C028;}
	.bst62{fill:#F71235;}
	.bst63{fill:#FFE63E;}
	.bst64{fill:#61B16C;}
	.bst65{fill:none;stroke:#231F20;stroke-width:3;stroke-miterlimit:10;}
	.bst66{fill:none;stroke:#231F20;stroke-width:2;stroke-linecap:round;stroke-miterlimit:10;}
	.bst67{fill:#F9F9F9;}
	.bst68{fill:#FE120C;}
	.bst69{fill:none;stroke:#231F20;stroke-width:3.66;stroke-miterlimit:10;}
	.bst70{fill:none;stroke:#231F20;stroke-width:3;stroke-linecap:round;stroke-miterlimit:10;}
	.bst71{fill:#D1D0C8;stroke:#231F20;stroke-width:3.6666;stroke-miterlimit:10;}
	.bst72{fill:#231F20;stroke:#231F20;stroke-width:3.6666;stroke-miterlimit:10;}
	.bst73{fill:#FE120C;stroke:#231F20;stroke-width:3.6666;stroke-miterlimit:10;}
	.bst74{fill:none;}
	.bst75{fill:#FFFFFF;stroke:#231F20;stroke-width:2;stroke-miterlimit:10;}
	.bst76{fill:#FE120C;stroke:#231F20;stroke-width:2;stroke-miterlimit:10;}
	.bst77{fill:#E7F414;}
	.bst78{fill:#130C0A;}
	.bst79{fill:#F2CD16;stroke:#231F20;stroke-width:2;stroke-linecap:round;stroke-miterlimit:10;}
	.bst80{fill:#27AAFE;}
</style>
<g id="Calque_1">
</g>
<g id="Calque_2">
	<rect x="0" y="0" class="bst51" width="50" height="50"/>
	<rect x="0" y="0" class="bst0" width="50" height="50"/>
	<rect x="9.3" y="3.1" class="bst54" width="9.4" height="25.1"/>
	<rect x="12.4" y="18.7" class="bst55" width="3.2" height="3.2"/>
	<rect x="12.4" y="21.9" width="3.2" height="3.2"/>
	<rect x="12.4" y="3.1" class="bst55" width="3.2" height="3.2"/>
	<rect x="12.4" y="6.3" width="3.2" height="3.2"/>
	<rect x="31.2" y="3.1" class="bst54" width="9.4" height="25.1"/>
	<rect x="34.2" y="3.1" class="bst55" width="3.2" height="3.2"/>
	<rect x="34.2" y="18.7" class="bst55" width="3.2" height="3.2"/>
	<rect x="34.2" y="21.9" width="3.2" height="3.2"/>
	<rect x="34.2" y="6.3" width="3.2" height="3.2"/>
	<g>
		<polygon class="bst74" points="43.6,40.7 43.6,43.7 6.3,43.7 6.3,40.7 6.3,37.5 3.1,37.5 3.1,46.9 46.9,46.9 46.9,37.5 43.6,37.5 
					"/>
		<rect x="9.3" y="3.1" class="bst74" width="9.4" height="25.1"/>
		<rect x="31.2" y="3.1" class="bst74" width="9.4" height="25.1"/>
		<rect x="18.7" y="37.5" class="bst74" width="12.5" height="3.2"/>
		<polygon class="bst74" points="43.6,3.1 43.6,31.2 40.5,31.2 31.2,31.2 28.1,31.2 28.1,28.2 28.1,3.1 21.8,3.1 21.8,28.2 
			21.8,31.2 18.7,31.2 9.3,31.2 6.3,31.2 6.3,28.2 6.3,3.1 3.1,3.1 3.1,34.4 46.9,34.4 46.9,3.1 		"/>
		<path d="M46.9,0h-3.3h-3.1h-9.4h-3.1h-6.3h-3.1H9.3H6.3H3.1H0v3.1v31.3v3.1V50h3.1h43.8H50v-3.1v-9.4v-3.1V3.1V0H46.9z M31.2,3.1
			h9.4v25.1h-9.4V3.1z M9.3,3.1h9.4v25.1H9.3V3.1z M46.9,46.9H3.1v-9.4h3.2v3.2v3.1h37.3v-3.1v-3.2h3.3V46.9z M18.7,40.7v-3.2h12.5
			v3.2H18.7z M3.1,34.4V3.1h3.2v25.1v3.1h3.1h9.4h3.1v-3.1V3.1h6.3v25.1v3.1h3.1h9.4h3.1V3.1h3.3v31.3H3.1z"/>
	</g>
	<polygon class="bst0" points="28,34.4 28,37.5 21.9,37.5 21.9,34.4 18.7,34.4 18.7,37.5 18.7,37.6 18.7,40.7 31.2,40.7 31.2,37.6 
		31.2,37.5 31.2,34.4 	"/>
	<rect x="21.9" y="34.4" width="6.2" height="3.1"/>
	<rect x="9.3" y="37.5" class="bst56" width="6.2" height="3.2"/>
	<rect x="34.2" y="37.5" class="bst56" width="6.2" height="3.2"/>
</g>
</svg>
