<?xml version="1.0" encoding="utf-8"?>
<!-- Generator: Adobe Illustrator 23.1.1, SVG Export Plug-In . SVG Version: 6.00 Build 0)  -->
<svg version="1.1" id="Calque_1" xmlns="http://www.w3.org/2000/svg" xmlns:xlink="http://www.w3.org/1999/xlink" x="0px" y="0px"
	 viewBox="0 0 50 50" style="enable-background:new 0 0 50 50;" xml:space="preserve">
<style type="text/css">
	.st0{fill:#1A335A;}
	.st1{fill:#CECECE;}
	.st2{fill:#686868;}
	.st3{fill:#E6E0DA;}
	.st4{fill:none;}
</style>
<g>
	<rect class="st0" width="50" height="50"/>
	<rect class="st1" width="50" height="50"/>
	<rect x="9.3" y="3.1" class="st2" width="9.4" height="25.1"/>
	<rect x="12.4" y="18.7" class="st3" width="3.2" height="3.2"/>
	<rect x="12.4" y="21.9" width="3.2" height="3.2"/>
	<rect x="12.4" y="3.1" class="st3" width="3.2" height="3.2"/>
	<rect x="12.4" y="6.3" width="3.2" height="3.2"/>
	<rect x="31.2" y="3.1" class="st2" width="9.4" height="25.1"/>
	<rect x="34.2" y="3.1" class="st3" width="3.2" height="3.2"/>
	<rect x="34.2" y="18.7" class="st3" width="3.2" height="3.2"/>
	<rect x="34.2" y="21.9" width="3.2" height="3.2"/>
	<rect x="34.2" y="6.3" width="3.2" height="3.2"/>
	<g>
		<polygon class="st4" points="43.6,40.7 43.6,43.7 6.3,43.7 6.3,40.7 6.3,37.5 3.1,37.5 3.1,46.9 46.9,46.9 46.9,37.5 43.6,37.5 		
			"/>
		<rect x="9.3" y="3.1" class="st4" width="9.4" height="25.1"/>
		<rect x="31.2" y="3.1" class="st4" width="9.4" height="25.1"/>
		<rect x="18.7" y="37.5" class="st4" width="12.5" height="3.2"/>
		<polygon class="st4" points="43.6,3.1 43.6,31.2 40.5,31.2 31.2,31.2 28.1,31.2 28.1,28.2 28.1,3.1 21.8,3.1 21.8,28.2 21.8,31.2 
			18.7,31.2 9.3,31.2 6.3,31.2 6.3,28.2 6.3,3.1 3.1,3.1 3.1,34.4 46.9,34.4 46.9,3.1 		"/>
		<path d="M46.9,0h-3.3h-3.1h-9.4H28h-6.3h-3.1H9.3h-3H3.1H0v3.1v31.3v3.1V50h3.1h43.8H50v-3.1v-9.4v-3.1V3.1V0H46.9z M31.2,3.1h9.4
			v25.1h-9.4C31.2,28.2,31.2,3.1,31.2,3.1z M9.3,3.1h9.4v25.1H9.3V3.1z M46.9,46.9H3.1v-9.4h3.2v3.2v3.1h37.3v-3.1v-3.2h3.3
			C46.9,37.5,46.9,46.9,46.9,46.9z M18.7,40.7v-3.2h12.5v3.2H18.7z M3.1,34.4V3.1h3.2v25.1v3.1h3.1h9.4h3.1v-3.1V3.1h6.3v25.1v3.1
			h3.1h9.4h3.1V3.1h3.3v31.3C47.1,34.4,3.1,34.4,3.1,34.4z"/>
	</g>
	<polygon class="st1" points="28,34.4 28,37.5 21.9,37.5 21.9,34.4 18.7,34.4 18.7,37.5 18.7,37.6 18.7,40.7 31.2,40.7 31.2,37.6 
		31.2,37.5 31.2,34.4 	"/>
	<rect x="21.9" y="34.4" width="6.2" height="3.1"/>
	<rect x="9.3" y="37.5" class="st2" width="6.2" height="3.2"/>
	<rect x="34.2" y="37.5" class="st2" width="6.2" height="3.2"/>
</g>
</svg>
