<?xml version="1.0" encoding="utf-8"?>
<!-- Generator: Adobe Illustrator 25.2.1, SVG Export Plug-In . SVG Version: 6.00 Build 0)  -->
<svg version="1.1" id="Layer_1" xmlns="http://www.w3.org/2000/svg" xmlns:xlink="http://www.w3.org/1999/xlink" x="0px" y="0px"
	 viewBox="0 0 122.9 122.2" style="enable-background:new 0 0 122.9 122.2;" xml:space="preserve">
<style type="text/css">
	.st0{fill:#FFFFFF;}
</style>
<g>
	<path class="st0" d="M76.1,97.2c5.4,0,9.7-4.4,9.7-9.7c0-5.4-4.4-9.7-9.7-9.7c-5.4,0-9.7,4.4-9.7,9.7
		C66.4,92.8,70.8,97.2,76.1,97.2z"/>
	<path class="st0" d="M92.4,36.6c4,0,7.2-3.2,7.2-7.2c0-4-3.2-7.2-7.2-7.2s-7.2,3.2-7.2,7.2C85.2,33.4,88.4,36.6,92.4,36.6z"/>
	<path class="st0" d="M96.4,15.9c4.2,0,7.6-3.4,7.6-7.6c0-4.2-3.4-7.6-7.6-7.6c-4.2,0-7.5,3.4-7.6,7.6
		C88.8,12.5,92.2,15.9,96.4,15.9z"/>
	<path class="st0" d="M117,42.3c3,0,5.4-2.4,5.4-5.4s-2.4-5.4-5.4-5.4c-1.5,0-2.8,0.6-3.9,1.6c-1,1-1.6,2.4-1.6,3.8
		C111.6,39.8,114,42.3,117,42.3z"/>
	<path class="st0" d="M38.5,75.7c-4.3,0-7.9,3.5-7.9,7.9s3.5,7.9,7.9,7.9s7.9-3.5,7.9-7.9S42.8,75.7,38.5,75.7z"/>
	<path class="st0" d="M121.4,55.5c0-0.8-0.3-1.6-0.7-2.3c-0.7-1.1-1.7-1.9-3-2.2c-1.2-0.3-2.5-0.1-3.6,0.6c-2.7,1.6-4.9,2.2-6.8,1.7
		c-1.8-0.5-3.7-2.1-5.4-4.7c-1.2-1.8-3.4-2.6-5.5-2c-4.6,1.5-8.9,1.7-12.5,0.5c-2.1-0.7-3.9-1.7-5.3-3.2c-1.5-1.4-2.5-3.2-3.2-5.3
		c-1.2-3.8-1-8.4,0.5-13.5l0.8-2.6h-0.7c-0.4-1.5-1.4-2.7-3-3.3c-2-0.7-3.3-2.1-4-4.1c-0.8-2.3-0.7-5.2,0.3-8.4
		c0.2-0.6,0.3-1.1,0.3-1.8c0-2.6-2.1-4.8-4.7-4.8c0,0,0,0,0,0C48.6-0.5,33,5.1,20.8,16C8.6,26.9,1.4,41.7,0.5,57.7
		c0,0.2,0,0.4,0,0.5c-0.8,16.1,4.8,31.6,15.6,43.6c10.8,11.9,25.5,19,41.6,19.9c0.2,0,0.4,0,0.6,0l0.2,0c0.9,0,1.8,0.1,2.7,0.1
		c15,0,29.4-5.5,40.6-15.7c11.9-10.8,19-25.5,19.9-41.6c0-0.2,0-0.4,0-0.5c0.1-1.3,0.1-2.8,0.1-4.3
		C121.6,58.3,121.5,56.9,121.4,55.5z M59.9,18.4c1.1,3.2,3.1,5.9,5.8,7.8c-1.1,5.5-1,10.8,0.5,15.4c1.2,3.6,3,6.7,5.6,9.2
		c2.5,2.5,5.6,4.4,9.2,5.5c4.6,1.4,9.7,1.5,15,0.4c2.6,3.1,5.6,5,8.8,5.9c2.3,0.6,4.7,0.7,7.2,0.2c0,0.3,0,0.6,0,0.9l0,0.3
		c-0.7,13.5-6.7,26-16.7,35.1c-10.1,9.2-23.2,13.8-36.8,13.1l-0.3,0c-13.5-0.7-26-6.7-35.1-16.7C14,85.3,9.3,72.2,10,58.6l0-0.3
		c0.7-13.5,6.8-26,17.2-35.2c8.9-7.9,20.1-12.6,31.7-13.3C58.7,12.9,59,15.8,59.9,18.4z"/>
	<path class="st0" d="M43.4,55.6c0-5.7-4.6-10.4-10.4-10.4s-10.4,4.6-10.4,10.4s4.6,10.4,10.4,10.4S43.4,61.3,43.4,55.6z"/>
	<path class="st0" d="M52.5,62.7c0,3.8,3.1,6.8,6.8,6.8s6.8-3.1,6.8-6.8s-3.1-6.8-6.8-6.8S52.5,58.9,52.5,62.7z"/>
	<path class="st0" d="M57.7,37.4c0-3.6-3-6.6-6.6-6.6s-6.6,3-6.6,6.6c0,3.6,3,6.6,6.6,6.6S57.7,41,57.7,37.4z"/>
</g>
</svg>
