<?xml version="1.0" encoding="utf-8"?>
<!-- Generator: Adobe Illustrator 23.1.1, SVG Export Plug-In . SVG Version: 6.00 Build 0)  -->
<svg version="1.1" id="Calque_1" xmlns="http://www.w3.org/2000/svg" xmlns:xlink="http://www.w3.org/1999/xlink" x="0px" y="0px"
	 viewBox="0 0 50 50" style="enable-background:new 0 0 50 50;" xml:space="preserve">
<style type="text/css">
	.st0{fill:#F2CD16;}
	.st1{fill:none;stroke:#FE120C;stroke-width:2;stroke-linecap:round;stroke-linejoin:round;stroke-miterlimit:10;}
	.st2{fill:none;}
	.st3{fill:#FFFFFF;}
	.st4{fill:#130C0A;}
	.st5{fill:#FE120C;}
</style>
<g>
	<polygon class="st0" points="26.6,12.4 37.6,1.3 43,1.6 48.2,6.9 48.8,12.4 37.3,23.6 34.7,17.7 30.1,14.1 	"/>
	<path class="st1" d="M44.1,17.3L44.1,17.3L44.1,17.3c2.1-2.1,1.2-6.3-1.9-9.4s-7.4-4-9.4-2c0,0,0,0-0.1,0.1l0,0"/>
	<ellipse transform="matrix(0.7071 -0.7071 0.7071 0.7071 -22.332 20.0153)" class="st2" cx="13" cy="37" rx="5.2" ry="8.1"/>
	<g>
		<path class="st3" d="M34.2,38.2c2-2.8,3-6.1,3-9.4c0-4-1.5-8-4.3-11c-3-3.2-7-4.9-11.4-5s-8.4,1.6-11.5,4.7
			c-0.3,0.3-0.7,0.7-1,1.1c6.3-2,13.4-0.4,18.1,4.4c4.8,4.8,6.4,11.8,4.4,18.1C32.5,40.2,33.4,39.2,34.2,38.2z"/>
		<path class="st4" d="M29.8,44.5c2.4-1.3,4.4-3,6-5.2c5-6.9,4.4-16.7-1.5-22.9c-3.4-3.5-7.9-5.5-12.8-5.6S12,12.6,8.6,16
			c-1.2,1.2-2.3,2.6-3.1,4.1c-0.1,0.1-0.1,0.3-0.1,0.5c0,0.3,0.1,0.5,0.3,0.7c0.3,0.3,0.8,0.4,1.1,0.2c6.2-3.3,13.9-2.2,18.9,2.8
			s6.1,12.7,2.8,18.9c-0.2,0.4-0.1,0.8,0.2,1.1C29,44.7,29.4,44.7,29.8,44.5z M27.1,22.9c-4.8-4.8-11.8-6.4-18.1-4.4
			c0.3-0.4,0.6-0.7,1-1.1c3.1-3.1,7.2-4.7,11.5-4.7c4.4,0.1,8.4,1.8,11.4,5c2.9,3,4.3,7,4.3,11c0,3.3-1,6.6-3,9.4
			c-0.8,1.1-1.7,2-2.7,2.9C33.5,34.8,31.9,27.7,27.1,22.9z"/>
	</g>
	<g>
		<path class="st5" d="M29.4,43.5c3.2-6.1,1.7-14.7-3-19.7c-5.6-5.8-14-5.6-20.1-2.5c-3.2,6.1-1.4,14.4,3.5,19.3
			S23.3,46.7,29.4,43.5z"/>
		<path class="st4" d="M29.8,44.5c0.2-0.1,0.3-0.2,0.4-0.4c3.8-6.9,2.5-15.6-3.1-21.2s-14.3-6.8-21.2-3.1c-0.2,0.1-0.3,0.2-0.4,0.4
			c-1.4,2.7-2.1,5.6-2.1,8.5c0,4.7,1.8,9.3,5.2,12.7C14.2,47,22.9,48.3,29.8,44.5z M7.1,21.4c6.1-3.2,13.8-2,18.7,2.9
			s6.1,12.5,2.9,18.7c-6.1,3.2-13.8,2-18.7-2.9S3.9,27.5,7.1,21.4z"/>
	</g>
	<circle class="st4" cx="34.7" cy="15.4" r="2.7"/>
	<circle class="st4" cx="38.4" cy="11.6" r="2.7"/>
	<path class="st4" d="M25.2,12.5c0-0.2,0.1-0.5,0.3-0.7L35.8,1.5l0,0l0,0C38.3-1,43-0.2,46.6,3.4c3.6,3.6,4.5,8.3,2,10.8l0,0l0,0
		L38.4,24.4c-0.4,0.4-1,0.4-1.4,0c-0.4-0.4-0.4-1,0-1.4l10.1-10l0.1-0.1l0.1-0.1c1.6-1.6,0.7-5.3-2-8s-6.4-3.6-8-2c0,0,0,0-0.1,0.1
		l0,0L26.9,13.2c-0.4,0.4-1,0.4-1.4,0C25.3,13,25.2,12.8,25.2,12.5z"/>
	<polygon class="st0" points="17.7,34.8 14,31.1 8.4,30.4 2.3,36.2 0.7,39.3 2.5,43.8 5.7,47.5 8.9,49.1 11.7,48.8 13.8,48 
		19.1,42.1 19.6,40.4 19.5,38 	"/>
	<g>
		<path class="st4" d="M14.2,48.6l5.1-5.1l0,0l0,0c2.5-2.5,1.6-7.2-2-10.8c-3.6-3.6-8.3-4.5-10.8-2l0,0l0,0l-5.1,5.1
			C0.5,36.7,0,38,0,39.4c0,0.5,0.1,1,0.2,1.6c0.4,2,1.6,3.9,3.2,5.6C7,50.2,11.7,51.1,14.2,48.6z M2.1,40.6C1.8,39.2,2,38,2.8,37.2
			l5.1-5.1c0,0,0,0,0.1-0.1c1.6-1.6,5.3-0.7,8,2c2.7,2.7,3.6,6.4,2,8c0,0,0,0-0.1,0l-0.1,0.1l-5,5c-1.6,1.6-5.3,0.7-8-2
			C3.4,43.9,2.5,42.2,2.1,40.6z"/>
	</g>
	<ellipse transform="matrix(0.7071 -0.7071 0.7071 0.7071 -26.432 18.3349)" class="st4" cx="8.9" cy="41.1" rx="3.1" ry="4.8"/>
</g>
</svg>
