<?xml version="1.0" encoding="utf-8"?>
<!-- Generator: Adobe Illustrator 23.1.1, SVG Export Plug-In . SVG Version: 6.00 Build 0)  -->
<svg version="1.1" xmlns="http://www.w3.org/2000/svg" xmlns:xlink="http://www.w3.org/1999/xlink" x="0px" y="0px"
	 viewBox="0 0 50 50" style="enable-background:new 0 0 50 50;" xml:space="preserve">
<style type="text/css">
	.st0{fill:#222222;}
	.st1{fill:none;stroke:#FFFFFF;stroke-width:0.5;stroke-miterlimit:10;}
	.st2{fill:#494949;}
	.st3{fill:#DB1233;}
	.st4{fill:#FFFFFF;}
	.st5{fill:#F6F5F5;}
	.st6{fill:#231F20;}
	.st7{fill:#2B3C41;}
	.st8{clip-path:url(#SVGID_4_);}
	.st9{clip-path:url(#SVGID_6_);}
	.st10{fill:#4B58A3;}
	.st11{fill:#D2A639;}
	.st12{fill:#1F968B;}
	.st13{fill:#6DB64C;}
	.st14{fill:#B5204D;}
	.st15{fill:#CCD7ED;}
	.st16{clip-path:url(#SVGID_8_);}
	.st17{fill:#EC365C;}
	.st18{fill:#939598;}
	.st19{fill:#7E8283;}
	.st20{fill:#3C5AA5;}
	.st21{fill:#213364;}
	.st22{fill:url(#SVGID_9_);}
	.st23{fill:url(#SVGID_10_);}
	.st24{fill:url(#SVGID_11_);}
	.st25{fill:url(#l1_7_);}
	.st26{fill:url(#SVGID_12_);}
	.st27{fill:url(#SVGID_13_);}
	.st28{fill:url(#SVGID_14_);}
	.st29{fill:url(#SVGID_15_);}
	.st30{fill:url(#SVGID_16_);}
	.st31{fill:#3A62AC;}
	.st32{fill:url(#SVGID_17_);}
	.st33{fill:url(#SVGID_18_);}
	.st34{fill-opacity:0;stroke:#FFFFFF;stroke-width:3;}
	.st35{fill:#FFCC05;}
	.st36{fill:#B28E03;}
	.st37{fill:url(#SVGID_19_);}
	.st38{fill:url(#SVGID_20_);}
	.st39{fill:url(#SVGID_21_);}
	.st40{fill:url(#l1_8_);}
	.st41{fill:url(#SVGID_22_);}
	.st42{fill:url(#SVGID_23_);}
	.st43{fill:url(#SVGID_24_);}
	.st44{fill:url(#SVGID_25_);}
	.st45{fill:url(#SVGID_26_);}
	.st46{fill:url(#SVGID_27_);}
	.st47{fill:url(#SVGID_28_);}
	.st48{fill:#1A335A;}
	.st49{fill:#332314;}
	.st50{fill:#E9BE11;}
	.st51{fill:#B93824;}
	.st52{fill:#E6E0DA;}
	.st53{fill:#B73828;}
	.st54{fill:#EBBE0E;}
	.st55{fill:#9E549E;}
	.st56{fill:#D6D6D6;}
	.st57{fill:#27AAFE;stroke:#231F20;stroke-width:2;stroke-miterlimit:10;}
	.st58{fill:#F7C028;}
	.st59{fill:#F71235;}
	.st60{fill:#FFE63E;}
	.st61{fill:#61B16C;}
	.st62{fill:none;stroke:#231F20;stroke-width:3;stroke-miterlimit:10;}
	.st63{fill:none;stroke:#231F20;stroke-width:2;stroke-linecap:round;stroke-miterlimit:10;}
	.st64{fill:#F9F9F9;}
	.st65{fill:#F2CD16;}
	.st66{fill:#FE120C;}
	.st67{fill:none;stroke:#231F20;stroke-width:3.66;stroke-miterlimit:10;}
	.st68{fill:none;stroke:#231F20;stroke-width:3;stroke-linecap:round;stroke-miterlimit:10;}
	.st69{fill:#D1D0C8;stroke:#231F20;stroke-width:3.6666;stroke-miterlimit:10;}
	.st70{fill:#231F20;stroke:#231F20;stroke-width:3.6666;stroke-miterlimit:10;}
	.st71{fill:#FE120C;stroke:#231F20;stroke-width:3.6666;stroke-miterlimit:10;}
	.st72{fill:none;}
	.st73{fill:#E7F414;stroke:#231F20;stroke-width:2;stroke-linecap:round;stroke-miterlimit:10;}
	.st74{fill:#F2CD16;stroke:#231F20;stroke-width:2;stroke-linecap:round;stroke-miterlimit:10;}
	.st75{fill:none;stroke:#FE120C;stroke-width:2;stroke-linecap:round;stroke-miterlimit:10;}
	.st76{fill:#FFFFFF;stroke:#231F20;stroke-width:2;stroke-miterlimit:10;}
	.st77{fill:#FE120C;stroke:#231F20;stroke-width:2;stroke-miterlimit:10;}
	.st78{fill:#130C0A;}
	.st79{fill:#F2CD16;stroke:#231F20;stroke-width:2;stroke-linecap:round;stroke-linejoin:round;stroke-miterlimit:10;}
	.st80{fill:none;stroke:#FE120C;stroke-width:2;stroke-linecap:round;stroke-linejoin:round;stroke-miterlimit:10;}
	.st81{fill:#27AAFE;}
	.st82{fill:#D1D0C8;stroke:#231F20;stroke-width:3;stroke-miterlimit:10;}
	.st83{fill:#FE120C;stroke:#231F20;stroke-width:3;stroke-miterlimit:10;}
	.st84{fill:#D1D0C8;}
	.st85{fill:#5D439C;}
	.st86{fill:none;stroke:#FFFFFF;stroke-miterlimit:10;}
	.st87{fill:#ED018C;}
	.st88{fill:none;stroke:#1A1818;stroke-width:3;stroke-miterlimit:10;}
	.st89{fill:#D1D0C8;stroke:#1A1818;stroke-width:3;stroke-miterlimit:10;}
	.st90{fill:#0C0C0C;}
	.st91{fill:#E8E8E8;}
	.st92{fill:url(#SVGID_35_);}
	.st93{fill:url(#SVGID_40_);}
	.st94{fill:url(#SVGID_41_);}
	.st95{fill:url(#SVGID_42_);}
	.st96{fill:url(#l1_9_);}
	.st97{fill:url(#SVGID_43_);}
	.st98{fill:url(#SVGID_44_);}
	.st99{fill:url(#SVGID_45_);}
	.st100{fill:url(#SVGID_46_);}
	.st101{fill:url(#SVGID_47_);}
	.st102{fill:url(#SVGID_48_);}
	.st103{fill:url(#SVGID_49_);}
	.st104{fill:url(#SVGID_50_);}
	.st105{fill:url(#SVGID_51_);}
	.st106{fill:url(#SVGID_52_);}
	.st107{fill:url(#l1_10_);}
	.st108{fill:url(#SVGID_53_);}
	.st109{fill:url(#SVGID_54_);}
	.st110{fill:url(#SVGID_55_);}
	.st111{fill:url(#SVGID_56_);}
	.st112{fill:url(#SVGID_57_);}
	.st113{fill:url(#SVGID_58_);}
	.st114{fill:url(#SVGID_59_);}
	.st115{fill:none;stroke:#3A3A3A;stroke-miterlimit:10;}
	.st116{fill:#1A1818;}
	.st117{fill:#E2E0E3;}
	.st118{fill:#0D0299;}
	.st119{fill:url(#SVGID_60_);}
	.st120{fill:url(#SVGID_61_);}
	.st121{fill:url(#SVGID_62_);}
	.st122{fill:url(#SVGID_63_);}
	.st123{fill:url(#l1_11_);}
	.st124{fill:url(#SVGID_64_);}
	.st125{fill:url(#SVGID_65_);}
	.st126{fill:url(#SVGID_66_);}
	.st127{fill:url(#SVGID_67_);}
	.st128{fill:url(#SVGID_68_);}
	.st129{fill:url(#SVGID_69_);}
	.st130{fill:url(#SVGID_70_);}
	.st131{fill:url(#SVGID_71_);}
	.st132{fill:url(#SVGID_72_);}
	.st133{fill:url(#SVGID_73_);}
	.st134{fill:url(#l1_12_);}
	.st135{fill:url(#SVGID_74_);}
	.st136{fill:url(#SVGID_75_);}
	.st137{fill:url(#SVGID_76_);}
	.st138{fill:url(#SVGID_77_);}
	.st139{fill:url(#SVGID_78_);}
	.st140{fill:url(#SVGID_79_);}
	.st141{fill:url(#SVGID_80_);}
	.st142{fill:url(#SVGID_81_);}
	.st143{fill:#FF3E60;}
	.st144{fill:#010101;}
</style>
<g id="Calque_1">
</g>
<g id="Calque_2">
	<g>
		<g>
			<g>
				<path class="st84" d="M24.9,31.6c-12.8,0-23.1-2.9-23.2-6.6V25c0,12.8,10.4,23.2,23.2,23.2S48.2,37.9,48.2,25v-0.1
					C48.1,28.5,37.8,31.6,24.9,31.6z"/>
				<g>
					<polygon class="st6" points="3.5,24.9 -0.1,24.9 3.5,24.8 					"/>
				</g>
				<g>
					<circle class="st84" cx="24.8" cy="29.1" r="7.5"/>
					<path class="st6" d="M24.8,38.2c-5,0-9-4-9-9s4-9,9-9s9,4,9,9S29.8,38.2,24.8,38.2z M24.8,23.1c-3.3,0-6,2.7-6,6s2.7,6,6,6
						s6-2.7,6-6S28.2,23.1,24.8,23.1z"/>
				</g>
				<path class="st85" d="M48.2,24.8c-0.1-12.7-10.5-23-23.2-23S1.8,12.1,1.7,24.8v0.1c0.1,3.6,10.4,6.6,23.2,6.6s23.1-2.9,23.2-6.6
					C48.2,24.8,48.2,24.8,48.2,24.8z"/>
			</g>
		</g>
		<polygon class="st4" points="20.7,17.2 19.3,16.7 22.1,8.8 24.7,13.6 27.7,8.9 30.4,16.5 29,17 27.3,12.3 24.6,16.6 22.4,12.4 		
			"/>
		<g>
			<path class="st87" d="M17.6,12.4c0-3.1-2-5.7-5-7c-4.8,3-8.4,7.7-10,13.3c1.6,1.1,3.6,1.7,5.8,1.7C13.4,20.3,17.6,16.8,17.6,12.4
				z"/>
			<path class="st87" d="M37.2,5.4c-3,1.3-5,4-5,7c0,4.4,4.2,7.9,9.3,7.9c2.2,0,4.2-0.6,5.8-1.7C45.6,13.1,41.9,8.4,37.2,5.4z"/>
		</g>
		<g>
			<g>
				<path class="st116" d="M24.9,50.1C11.1,50.1-0.1,38.9-0.1,25h0c0,0,0,0,0-0.1l3.7-0.1c0,1.4,7.4,4.8,21.4,4.8
					c13.8,0,21.4-3.4,21.4-4.8l3.7,0.1C50,38.9,38.8,50.1,24.9,50.1z M4.1,30c2.3,9.5,10.7,16.5,20.8,16.5
					c10.1,0,18.6-7.1,20.8-16.6c-4.8,2.4-13,3.5-20.8,3.5C18.7,33.4,9.5,32.6,4.1,30z"/>
				<g>
					<polygon class="st6" points="3.5,24.9 -0.1,24.9 3.5,24.8 					"/>
				</g>
				<path class="st116" d="M24.9,33.4C13,33.4,0,30.8-0.1,25l0-0.2C0,11.1,11.2,0,24.9,0c13.7,0,25,11.1,25.1,24.9l0,0.1
					C49.8,31.6,34.2,33.4,24.9,33.4z M24.9,3.6c-11.7,0-21.3,9.5-21.4,21.2l0,0.1c0,1.3,7.6,4.8,21.4,4.8c14,0,21.4-3.4,21.4-4.8v0
					C46.3,13.2,36.7,3.6,24.9,3.6z"/>
				<g>
					<circle class="st84" cx="24.8" cy="29.1" r="7.5"/>
					<path class="st116" d="M24.8,38.5c-5.2,0-9.3-4.2-9.3-9.3s4.2-9.3,9.3-9.3s9.3,4.2,9.3,9.3S30,38.5,24.8,38.5z M24.8,23.5
						c-3.1,0-5.7,2.5-5.7,5.7s2.5,5.7,5.7,5.7s5.7-2.5,5.7-5.7S28,23.5,24.8,23.5z"/>
				</g>
			</g>
		</g>
	</g>
</g>
<g id="Calque_3">
</g>
</svg>
