<?xml version="1.0" encoding="utf-8"?>
<!-- Generator: Adobe Illustrator 23.1.1, SVG Export Plug-In . SVG Version: 6.00 Build 0)  -->
<svg version="1.1" xmlns="http://www.w3.org/2000/svg" xmlns:xlink="http://www.w3.org/1999/xlink" x="0px" y="0px"
	 viewBox="0 0 50 50" style="enable-background:new 0 0 50 50;" xml:space="preserve">
<style type="text/css">
	.cst0{fill:#F2CD16;}
	.cst1{fill:#E7F414;stroke:#231F20;stroke-width:2;stroke-linecap:round;stroke-miterlimit:10;}
	.cst2{fill:none;stroke:#FE120C;stroke-width:2;stroke-linecap:round;stroke-miterlimit:10;}
	.cst3{fill:#DB1233;}
	.cst4{fill:#FFFFFF;}
	.cst5{fill:#F6F5F5;}
	.cst6{fill:#231F20;}
	.cst7{fill:#2B3C41;}
	.cst8{clip-path:url(#SVGID_2_);}
	.cst9{clip-path:url(#SVGID_4_);}
	.cst10{fill:#4B58A3;}
	.cst11{fill:#D2A639;}
	.cst12{fill:#1F968B;}
	.cst13{fill:#6DB64C;}
	.cst14{fill:#B5204D;}
	.cst15{fill:#CCD7ED;}
	.cst16{clip-path:url(#SVGID_6_);}
	.cst17{fill:#EC365C;}
	.cst18{fill:#939598;}
	.cst19{fill:#7E8283;}
	.cst20{clip-path:url(#SVGID_8_);}
	.cst21{clip-path:url(#SVGID_10_);}
	.cst22{clip-path:url(#SVGID_12_);}
	.cst23{fill:#3C5AA5;}
	.cst24{fill:#213364;}
	.cst25{fill:url(#SVGID_13_);}
	.cst26{fill:url(#SVGID_14_);}
	.cst27{fill:url(#SVGID_15_);}
	.cst28{fill:url(#l1_1_);}
	.cst29{fill:url(#SVGID_16_);}
	.cst30{fill:url(#SVGID_17_);}
	.cst31{fill:url(#SVGID_18_);}
	.cst32{fill:url(#SVGID_19_);}
	.cst33{fill:url(#SVGID_20_);}
	.cst34{fill:#3A62AC;}
	.cst35{fill:url(#SVGID_21_);}
	.cst36{fill:url(#SVGID_22_);}
	.cst37{fill-opacity:0;stroke:#FFFFFF;stroke-width:3;}
	.cst38{fill:#FFCC05;}
	.cst39{fill:#B28E03;}
	.cst40{fill:url(#SVGID_23_);}
	.cst41{fill:url(#SVGID_24_);}
	.cst42{fill:url(#SVGID_25_);}
	.cst43{fill:url(#l1_4_);}
	.cst44{fill:url(#SVGID_26_);}
	.cst45{fill:url(#SVGID_27_);}
	.cst46{fill:url(#SVGID_28_);}
	.cst47{fill:url(#SVGID_29_);}
	.cst48{fill:url(#SVGID_30_);}
	.cst49{fill:url(#SVGID_31_);}
	.cst50{fill:url(#SVGID_32_);}
	.cst51{fill:#1A335A;}
	.cst52{fill:#332314;}
	.cst53{fill:#E9BE11;}
	.cst54{fill:#B93824;}
	.cst55{fill:#E6E0DA;}
	.cst56{fill:#B73828;}
	.cst57{fill:#EBBE0E;}
	.cst58{fill:#9E549E;}
	.cst59{fill:#D6D6D6;}
	.cst60{fill:#27AAFE;stroke:#231F20;stroke-width:2;stroke-miterlimit:10;}
	.cst61{fill:#F7C028;}
	.cst62{fill:#F71235;}
	.cst63{fill:#FFE63E;}
	.cst64{fill:#61B16C;}
	.cst65{fill:none;stroke:#231F20;stroke-width:3;stroke-miterlimit:10;}
	.cst66{fill:none;stroke:#231F20;stroke-width:2;stroke-linecap:round;stroke-miterlimit:10;}
	.cst67{fill:#F9F9F9;}
	.cst68{fill:#FE120C;}
	.cst69{fill:none;stroke:#231F20;stroke-width:3.66;stroke-miterlimit:10;}
	.cst70{fill:none;stroke:#231F20;stroke-width:3;stroke-linecap:round;stroke-miterlimit:10;}
	.cst71{fill:#D1D0C8;stroke:#231F20;stroke-width:3.6666;stroke-miterlimit:10;}
	.cst72{fill:#231F20;stroke:#231F20;stroke-width:3.6666;stroke-miterlimit:10;}
	.cst73{fill:#FE120C;stroke:#231F20;stroke-width:3.6666;stroke-miterlimit:10;}
	.cst74{fill:none;}
	.cst75{fill:#FFFFFF;stroke:#231F20;stroke-width:2;stroke-miterlimit:10;}
	.cst76{fill:#FE120C;stroke:#231F20;stroke-width:2;stroke-miterlimit:10;}
	.cst77{fill:#E7F414;}
	.cst78{fill:#130C0A;}
	.cst79{fill:#F2CD16;stroke:#231F20;stroke-width:2;stroke-linecap:round;stroke-miterlimit:10;}
	.cst80{fill:#27AAFE;}
</style>
<g id="Calque_1">
</g>
<g id="Calque_2">
	<path class="cst3" d="M45.2,50H4.8C2.2,50,0,47.9,0,45.2V4.9C0,2.2,2.2,0,4.8,0h40.3C47.8,0,50,2.2,50,4.9v40.3
		C50,47.9,47.8,50,45.2,50z"/>
	<g>
		<path class="cst80" d="M20.2,12c0-4.4-3.6-8-8-8c-4.4,0-8,3.6-8,8c0,4.4,3.6,8,8,8C16.6,20.1,20.2,16.5,20.2,12z"/>
		<path class="cst6" d="M12.1,2c-5.5,0-10,4.5-10,10c0,5.5,4.5,10,10,10c5.5,0,10-4.5,10-10C22.2,6.5,17.7,2,12.1,2z M4.1,12
			c0-4.4,3.6-8,8-8c4.4,0,8,3.6,8,8c0,4.4-3.6,8-8,8C7.7,20.1,4.1,16.5,4.1,12z"/>
	</g>
	<g>
		<path class="cst0" d="M5.4,45.7c-0.1,0-0.3,0-0.4-0.1c-0.4-0.2-0.6-0.5-0.6-0.9v-14c0-0.4,0.2-0.8,0.6-0.9c0.1,0,0.3-0.1,0.4-0.1
			c0.3,0,0.5,0.1,0.7,0.3l6.9,7c0.4,0.4,0.4,1,0,1.4l-6.9,7C6,45.6,5.7,45.7,5.4,45.7z"/>
		<g>
			<path class="cst6" d="M5.4,30.7l6.9,7l-6.9,7V30.7 M5.4,28.7c-0.3,0-0.5,0-0.8,0.1c-0.8,0.3-1.2,1-1.2,1.9v14
				c0,0.8,0.5,1.5,1.2,1.9c0.2,0.1,0.5,0.1,0.8,0.1c0.5,0,1-0.2,1.4-0.6l6.9-7c0.8-0.8,0.8-2,0-2.8l-6.9-7C6.5,29,6,28.7,5.4,28.7
				L5.4,28.7z"/>
		</g>
	</g>
	<circle class="cst68" cx="26.9" cy="8.7" r="2.9"/>
	<circle class="cst0" cx="34.7" cy="8.7" r="2.9"/>
	<circle class="cst64" cx="42.5" cy="8.7" r="2.9"/>
	<path class="cst6" d="M23,27.5H0v-3.7h23c5.1,0,8.9-2.1,12.9-4.3c4.1-2.2,8.4-4.6,14-4.6v3.7c-4.7,0-8.4,2-12.3,4.1
		C33.5,25.1,29.1,27.5,23,27.5z"/>
	<path class="cst6" d="M44.7,39.2H18.8c-0.8,0-1.5-0.7-1.5-1.5s0.7-1.5,1.5-1.5h25.9c0.8,0,1.5,0.7,1.5,1.5S45.5,39.2,44.7,39.2z"/>
</g>
</svg>
