<?xml version="1.0" encoding="utf-8"?>
<!-- Generator: Adobe Illustrator 23.1.1, SVG Export Plug-In . SVG Version: 6.00 Build 0)  -->
<svg version="1.1" id="Calque_1" xmlns="http://www.w3.org/2000/svg" xmlns:xlink="http://www.w3.org/1999/xlink" x="0px" y="0px"
	 viewBox="0 0 50 50" style="enable-background:new 0 0 50 50;" xml:space="preserve">
<style type="text/css">
	.st0{fill:#C90027;}
	.st1{fill:#F2CD16;}
	.st2{fill:#231F20;}
	.st3{fill:#FF0000;}
	.st4{fill:#61B16C;}
	.st5{fill:#FFFFFF;display: none;}
	.st6{fill:#0080FF;}

	path { transition: 1s; }
   

    #diode:hover .st6 {
     animation-duration: 700ms;
    animation-name: blink;
    animation-iteration-count: infinite;
    animation-direction: alternate;
    -webkit-animation:blink 700ms infinite;

    }

@keyframes blink {
    from {
    	fill:#0080FF;
    }
    to {
    	fill:#6EF1FF; 
    }
}

</style>
<g id="diode">
	<path class="st0" d="M45.2,50H4.8C2.2,50,0,47.9,0,45.2V4.9C0,2.2,2.2,0,4.8,0h40.3C47.8,0,50,2.2,50,4.9v40.3
		C50,47.9,47.8,50,45.2,50z"/>
	<g>
		<path class="st1" d="M5.4,46.7c-0.1,0-0.3,0-0.4-0.1c-0.4-0.2-0.6-0.5-0.6-0.9v-14c0-0.4,0.2-0.8,0.6-0.9c0.1,0,0.3-0.1,0.4-0.1
			c0.3,0,0.5,0.1,0.7,0.3l6.9,7c0.4,0.4,0.4,1,0,1.4l-6.9,7C6,46.6,5.7,46.7,5.4,46.7z"/>
		<g>
			<path class="st2" d="M5.4,31.7l6.9,7l-6.9,7V31.7 M5.4,29.7c-0.3,0-0.5,0-0.8,0.1c-0.8,0.3-1.2,1-1.2,1.9v14
				c0,0.8,0.5,1.5,1.2,1.9c0.2,0.1,0.5,0.1,0.8,0.1c0.5,0,1-0.2,1.4-0.6l6.9-7c0.8-0.8,0.8-2,0-2.8l-6.9-7C6.5,30,6,29.7,5.4,29.7
				L5.4,29.7z"/>
		</g>
	</g>
	<circle class="st1" cx="34.7" cy="8.7" r="2.9"/>
	<circle class="st3" cx="26.9" cy="8.7" r="2.9"/>
	<circle class="st4" cx="42.5" cy="8.7" r="2.9"/>
	<path class="st2" d="M23,28.3H0v-3.7h23c5.1,0,8.9-2.1,12.9-4.3c4.1-2.2,8.4-4.6,14-4.6v3.7c-4.7,0-8.4,2-12.3,4.1
		C33.5,25.9,29.1,28.3,23,28.3z"/>
	<path class="st2" d="M44.7,39.2H18.8c-0.8,0-1.5-0.7-1.5-1.5s0.7-1.5,1.5-1.5h25.9c0.8,0,1.5,0.7,1.5,1.5S45.5,39.2,44.7,39.2z"/>
	<g>
		<path class="st5" d="M12.1,2c-5.5,0-10,4.5-10,10s4.5,10,10,10s10-4.5,10-10C22.2,6.5,17.7,2,12.1,2z M4.1,12c0-4.4,3.6-8,8-8
			s8,3.6,8,8s-3.6,8-8,8C7.7,20.1,4.1,16.5,4.1,12z"/>
	</g>
		<path class="st6" d="M21.1,12c0-4.9-4-9-9-9s-9,4-9,9s4,9,9,9C17.1,21.1,21.1,17.1,21.1,12z"/>
</g>
</svg>
