<?xml version="1.0" encoding="utf-8"?>
<!-- Generator: Adobe Illustrator 23.1.1, SVG Export Plug-In . SVG Version: 6.00 Build 0)  -->
<svg version="1.1" xmlns="http://www.w3.org/2000/svg" xmlns:xlink="http://www.w3.org/1999/xlink" x="0px" y="0px"
	 viewBox="0 0 50 50" style="enable-background:new 0 0 50 50;" xml:space="preserve">
<style type="text/css">
	.cst3{fill:#FFFFFF;}
	.cst5{fill:#231F20;}
	.cst57{fill:#9E549E;}
	.cst71{fill:#D1D0C8;stroke:#231F20;stroke-width:3.6666;stroke-miterlimit:10;}
	.cst72{fill:#231F20;stroke:#231F20;stroke-width:3.6666;stroke-miterlimit:10;}
	.cst73{fill:#FE120C;stroke:#231F20;stroke-width:3.6666;stroke-miterlimit:10;}
</style>
<g id="Calque_1">
</g>
<g id="Calque_2">
	<path class="cst5" d="M48.3,25C48.3,25,48.3,24.9,48.3,25C48.3,25,48.3,25,48.3,25C48.3,25,48.3,25,48.3,25z"/>
	<g>
		<path class="cst71" d="M25,31.4c-12.8,0-23.1-2.9-23.2-6.6c0,0,0,0.1,0,0.1c0,12.8,10.4,23.2,23.2,23.2s23.2-10.4,23.2-23.2
			c0,0,0-0.1,0-0.1C48.1,28.4,37.8,31.4,25,31.4z"/>
		<path class="cst5" d="M48.2,24.7C48.2,24.7,48.2,24.7,48.2,24.7C48.2,24.7,48.2,24.7,48.2,24.7C48.2,24.8,48.2,24.7,48.2,24.7z"/>
		<path class="cst72" d="M1.8,24.7C1.8,24.7,1.8,24.8,1.8,24.7C1.8,24.7,1.8,24.7,1.8,24.7C1.8,24.7,1.8,24.7,1.8,24.7z"/>
		<path class="cst73" d="M48.2,24.7C48.1,12,37.7,1.7,25,1.7S1.9,12,1.8,24.7c0,0,0,0.1,0,0.1c0.1,3.6,10.4,6.6,23.2,6.6
			c12.8,0,23.1-2.9,23.2-6.6C48.2,24.7,48.2,24.7,48.2,24.7z"/>
		<circle class="cst71" cx="24.9" cy="29" r="7.5"/>
		<circle class="cst3" cx="14.4" cy="15.2" r="2.9"/>
	</g>
</g>
</svg>
