<?xml version="1.0" encoding="utf-8"?>
<!-- Generator: Adobe Illustrator 24.2.3, SVG Export Plug-In . SVG Version: 6.00 Build 0)  -->
<svg version="1.1" id="Calque_1" xmlns="http://www.w3.org/2000/svg" xmlns:xlink="http://www.w3.org/1999/xlink" x="0px" y="0px"
	 viewBox="0 0 50 50" style="enable-background:new 0 0 50 50;" xml:space="preserve">
<style type="text/css">
	.st0{fill:#FFFFFF;}
	.st1{fill:#C7D4D8;}
	.st2{fill:none;}
	.st3{fill:#33363A;}
</style>
<path class="st0" d="M39.4,30.6h5c3.1,0,5.6-2.5,5.6-5.6s-2.5-5.6-5.6-5.6h-5c-0.1-0.2-0.2-0.5-0.3-0.7l3.7-3.7
	c2.1-2.1,2.1-5.7-0.1-7.9c-1.1-1.1-2.5-1.6-3.9-1.6c-1.5,0-2.9,0.6-3.9,1.7l-3.7,3.5c-0.1,0-0.3-0.1-0.4-0.1c-0.1,0-0.2-0.1-0.3-0.1
	v-5c0-3-2.5-5.5-5.6-5.5c-3.1,0-5.6,2.5-5.6,5.6v5c-0.2,0.1-0.5,0.2-0.7,0.3L15,7.4c-1-1-2.4-1.6-3.9-1.6S8.3,6.4,7.2,7.4
	C5.1,9.5,5,13,7.2,15.2l3.6,3.6c0,0.1-0.1,0.2-0.1,0.4c0,0.1-0.1,0.2-0.1,0.3h-5C2.5,19.5,0,22,0,25.1c0,3.1,2.5,5.6,5.6,5.6h5
	c0.1,0.2,0.2,0.5,0.3,0.7L7.4,35c-2,2.1-2,5.6,0,7.7c2.2,2.2,5.6,2.2,7.9,0.1l3.5-3.6c0.1,0,0.2,0.1,0.4,0.1c0.1,0,0.2,0.1,0.3,0.1
	v5c0,3.1,2.5,5.6,5.6,5.6c3.1,0,5.6-2.5,5.6-5.7v-4.9c0.2-0.1,0.5-0.2,0.7-0.3l3.7,3.6c2.2,2.2,5.7,2.2,7.8,0c2.2-2.2,2.2-5.7,0-7.8
	l-3.6-3.6c0-0.1,0.1-0.2,0.1-0.4C39.4,30.8,39.4,30.7,39.4,30.6z M24.7,30.6c-3.1,0-5.7-2.5-5.7-5.7s2.5-5.7,5.7-5.7
	s5.7,2.5,5.7,5.7S27.9,30.6,24.7,30.6z"/>
<g id="Groupe_69" transform="translate(0.681 2.967)">
	<path id="Tracé_150" class="st1" d="M30.8,35.1l3.9,3.9c1.8,1.8,4.5,1.8,6.3,0c0.3-0.3,0.6-0.7,0.8-1.1c-0.2-0.4-0.5-0.8-0.8-1.1
		l-4-3.9c0.3-0.6,0.6-1.3,0.8-2h1.4L37,28.7c0.3-0.6,0.6-1.3,0.8-2h5.7c1.7,0,3.1-1,3.9-2.4c-0.8-1.5-2.3-2.4-3.9-2.4h-5.8
		c-0.2-0.7-0.5-1.4-0.8-2l2.2-2.2h-1.4c-0.2-0.7-0.5-1.4-0.8-2l3.9-3.9c0.3-0.3,0.6-0.7,0.8-1.1c-1.2-2.2-3.7-2.9-6-2
		c-0.4,0.2-0.8,0.5-1.1,0.8l-3.9,3.9c-0.6-0.3-1.3-0.6-2-0.8v-5c0-2.4-2.1-4.4-4.4-4.4s-4.4,2.1-4.4,4.4l0,0v5.7
		c-0.7,0.2-1.4,0.5-2,0.8l-3.8-4c-1.8-1.8-4.5-1.8-6.3,0c-0.4,0.3-0.7,0.7-0.9,1.1C7,11.6,7.3,12,7.6,12.4l3.9,3.9
		c-0.3,0.6-0.6,1.3-0.8,2H9.6l2.2,2.2c-0.3,0.6-0.6,1.3-0.8,2H5.3c-1.7,0-3.1,1-3.9,2.4c0.8,1.5,2.3,2.4,3.9,2.4H11
		c0.2,0.7,0.5,1.4,0.8,2l-2.2,2.2H11c0.2,0.7,0.5,1.4,0.8,2l-3.9,3.9c-0.3,0.3-0.6,0.7-0.8,1.1c1.2,2.2,3.7,2.9,6,2
		c0.4-0.2,0.8-0.5,1.1-0.8l3.9-3.9c0.6,0.3,1.3,0.6,2,0.8V42c0,2.4,2.1,4.4,4.4,4.4s4.4-2.1,4.4-4.4v-5.7
		C29.4,35.7,30.1,35.4,30.8,35.1z M19.6,25.9c0-0.7-0.4-0.7-0.2-1.4c-1.2-2.6,0.2-5.8,2.8-6.9s5.8,0.2,6.9,2.8c0.6,1.4,0.6,2.7,0,4
		c0.3,0.7-0.2,0.2-0.2,1c0,2.8-1.9,2.3-4.7,2.3C24.4,27.8,19.6,28.9,19.6,25.9z"/>
</g>
<g>
	<path class="st2" d="M29.3,25c0-1.1-0.4-2.2-1.1-3c-0.8-0.9-1.9-1.3-3.2-1.3c-2.4,0-4.3,1.9-4.3,4.3s1.9,4.3,4.3,4.3
		C27.4,29.3,29.3,27.4,29.3,25z"/>
	<path class="st3" d="M18.6,37.7L18.6,37.7L18.6,37.7z"/>
	<path d="M39.4,30.6h5c3.1,0,5.6-2.5,5.6-5.6s-2.5-5.6-5.6-5.6h-5c-0.1-0.2-0.2-0.5-0.3-0.7l3.7-3.7c2.1-2.1,2.1-5.7-0.1-7.9
		c-1.1-1.1-2.5-1.6-3.9-1.6c-1.5,0-2.9,0.6-3.9,1.7l-3.7,3.5c-0.1,0-0.3-0.1-0.4-0.1s-0.2-0.1-0.3-0.1v-5c0-3-2.5-5.5-5.6-5.5
		s-5.6,2.5-5.6,5.6v5c-0.2,0.1-0.5,0.2-0.7,0.3L15,7.4c-1-1-2.4-1.6-3.9-1.6S8.3,6.4,7.2,7.4C5.1,9.5,5,13,7.2,15.2l3.6,3.6
		c0,0.1-0.1,0.2-0.1,0.4c0,0.1-0.1,0.2-0.1,0.3h-5C2.5,19.5,0,22,0,25.1s2.5,5.6,5.6,5.6h5c0.1,0.2,0.2,0.5,0.3,0.7L7.4,35
		c-2,2.1-2,5.6,0,7.7c2.2,2.2,5.6,2.2,7.9,0.1l3.5-3.6c0.1,0,0.2,0.1,0.4,0.1c0.1,0,0.2,0.1,0.3,0.1v5c0,3.1,2.5,5.6,5.6,5.6
		s5.6-2.5,5.6-5.7v-4.9c0.2-0.1,0.5-0.2,0.7-0.3l3.7,3.6c2.2,2.2,5.7,2.2,7.8,0c2.2-2.2,2.2-5.7,0-7.8l-3.6-3.6
		c0-0.1,0.1-0.2,0.1-0.4C39.4,30.8,39.4,30.7,39.4,30.6z M18.6,37.7L18.6,37.7L18.6,37.7L18.6,37.7z M20.8,37.7
		c-0.5-0.2-1.2-0.4-1.7-0.7c-0.2-0.2-0.5-0.2-0.6-0.2s-0.2,0-0.4,0.1h-0.2L13.8,41c-1.4,1.4-3.5,1.4-4.9,0c-0.7-0.7-1-1.5-1-2.4
		s0.4-1.8,1-2.4l4.1-4c0.3-0.3,0.4-0.8,0.2-1.3c-0.3-0.6-0.6-1.1-0.8-1.9c-0.2-0.4-0.6-0.7-1-0.7H5.6c-1.9,0-3.4-1.5-3.4-3.4
		s1.5-3.4,3.4-3.4h5.8c0.4,0,0.8-0.2,1.1-0.7c0.2-0.5,0.5-1.2,0.8-1.8c0.2-0.4,0.1-0.9-0.2-1.3l-4.1-4l-0.1-0.1
		c-0.7-0.7-1-1.5-1-2.4s0.4-1.8,1.2-2.4c0.7-0.6,1.6-1,2.5-1s1.8,0.4,2.4,1l4,4.1c0.3,0.3,0.8,0.4,1.3,0.2c0.6-0.3,1.1-0.6,1.9-0.8
		c0.4-0.2,0.7-0.6,0.7-1V5.6c0-1.9,1.5-3.4,3.4-3.4s3.4,1.5,3.4,3.4v5.7c0,0.4,0.2,0.8,0.7,1.1c0.5,0.2,1.2,0.5,1.8,0.8
		c0.4,0.2,0.9,0.1,1.3-0.2l3.9-4c1.4-1.3,3.4-1.3,4.8,0c1.4,1.4,1.4,3.5,0.1,4.9l-4,4c-0.3,0.3-0.4,0.8-0.2,1.3
		c0.3,0.6,0.6,1.1,0.8,1.9c0.2,0.4,0.6,0.7,1,0.7h5.8c1.9,0,3.4,1.5,3.4,3.4s-1.5,3.4-3.4,3.4h-5.8c-0.4,0-0.8,0.2-1.1,0.7
		c-0.2,0.5-0.5,1.2-0.8,1.8c-0.2,0.4-0.1,0.9,0.2,1.3l4,4c0.7,0.7,1,1.5,1,2.4s-0.4,1.8-1,2.4c-1.3,1.3-3.6,1.3-4.9,0l-4-4
		C32,36.9,31.5,36.8,31,37c-0.6,0.3-1.1,0.6-1.9,0.8c-0.4,0.2-0.7,0.6-0.7,1v5.8c0,1.9-1.5,3.4-3.4,3.4s-3.4-1.5-3.4-3.4v-5.8
		C21.6,38.3,21.3,37.9,20.8,37.7z"/>
	<path d="M31.5,25c0-3.6-2.8-6.5-6.5-6.5s-6.5,2.8-6.5,6.5s2.8,6.5,6.5,6.5S31.5,28.6,31.5,25z M20.7,25c0-2.4,1.9-4.3,4.3-4.3
		c1.2,0,2.4,0.5,3.2,1.3c0.8,0.8,1.2,1.9,1.1,3c0,2.4-1.9,4.3-4.3,4.3S20.7,27.4,20.7,25z"/>
</g>
<g id="Calque_1_1_">
</g>
</svg>
