<?xml version="1.0" encoding="utf-8"?>
<!-- Generator: Adobe Illustrator 24.2.2, SVG Export Plug-In . SVG Version: 6.00 Build 0)  -->
<svg version="1.1" id="Calque_1" xmlns="http://www.w3.org/2000/svg" xmlns:xlink="http://www.w3.org/1999/xlink" x="0px" y="0px"
	 viewBox="0 0 50 50" style="enable-background:new 0 0 50 50;" xml:space="preserve">
<style type="text/css">
	.st0{fill:#FFFFFF;}
	.st1{fill:#C7D4D8;}
	.st2{fill:#33363A;stroke:#000000;stroke-miterlimit:10;}
</style>
<g id="Calque_1_1_">
</g>
<g id="Groupe_71" transform="translate(0)">
	<g id="Groupe_68" transform="translate(0.361 0.361)">
		<path id="Tracé_149" class="st0" d="M44,19.7h-5.9c-0.2-0.7-0.5-1.4-0.8-2l4.1-4.1c1.8-1.8,1.9-4.7,0.1-6.5s-4.7-1.9-6.5-0.1
			C35,7,35,7,34.9,7.1l-4.1,4.1c-0.6-0.3-1.3-0.6-2-0.8V4.5c0-2.5-2.1-4.6-4.6-4.6S19.6,2,19.6,4.5l0,0v5.9c-0.7,0.2-1.4,0.5-2,0.8
			l-4.2-4.1c-1.8-1.8-4.7-1.7-6.5,0.1c-1.7,1.8-1.7,4.6,0,6.4l4.1,4.1c-0.3,0.6-0.6,1.3-0.8,2H4.4c-2.5,0-4.6,2-4.7,4.5
			c0,2.5,2,4.6,4.5,4.7c0.1,0,0.1,0,0.2,0h5.9c0.2,0.7,0.5,1.4,0.8,2l-4.1,4.2c-1.8,1.8-1.9,4.7-0.1,6.5c1.8,1.8,4.7,1.9,6.5,0.1
			c0,0,0.1-0.1,0.1-0.1l4.1-4.1c0.6,0.3,1.3,0.6,2,0.8v5.9c0,2.5,2.1,4.6,4.6,4.6c2.5,0,4.6-2.1,4.6-4.6v-5.9c0.7-0.2,1.4-0.5,2-0.8
			l4.1,4.1c1.8,1.8,4.7,1.9,6.5,0.1c1.8-1.8,1.9-4.7,0.1-6.5c0,0-0.1-0.1-0.1-0.1l-4.1-4.1c0.3-0.6,0.6-1.3,0.8-2H44
			c2.5,0,4.6-2.1,4.6-4.6C48.6,21.8,46.5,19.7,44,19.7L44,19.7z M29.7,24.3c0,3-2.5,5.5-5.5,5.5c-3,0-5.5-2.5-5.5-5.5
			c0-3,2.5-5.5,5.5-5.5C27.2,18.8,29.7,21.3,29.7,24.3L29.7,24.3z"/>
	</g>
	<g id="Groupe_69" transform="translate(0.681 2.967)">
		<path id="Tracé_150" class="st1" d="M30.5,34.8l4.1,4.1c1.8,1.8,4.7,1.8,6.5,0c0.3-0.3,0.6-0.7,0.8-1.1c-0.2-0.4-0.5-0.8-0.8-1.1
			L37,32.6c0.3-0.6,0.6-1.3,0.8-2h1.4L37,28.3c0.3-0.6,0.6-1.3,0.8-2h5.9c1.7,0,3.3-1,4.1-2.5c-0.8-1.5-2.4-2.5-4.1-2.5h-5.9
			c-0.2-0.7-0.5-1.4-0.8-2l2.2-2.2h-1.4c-0.2-0.7-0.5-1.4-0.8-2l4.1-4.1c0.3-0.3,0.6-0.7,0.8-1.1c-1.2-2.3-3.9-3.1-6.2-2
			c-0.4,0.2-0.8,0.5-1.1,0.8l-4.1,4.1c-0.6-0.3-1.3-0.6-2-0.8V6.1c0-2.5-2.1-4.6-4.6-4.6s-4.6,2.1-4.6,4.6l0,0V12
			c-0.7,0.2-1.4,0.5-2,0.8l-4.1-4.1c-1.8-1.8-4.7-1.8-6.5,0C6.3,9,6,9.4,5.8,9.8C6,10.2,6.3,10.6,6.6,11l4.1,4.1
			c-0.3,0.6-0.6,1.3-0.8,2H8.5l2.2,2.2c-0.3,0.6-0.6,1.3-0.8,2H4c-1.7,0-3.3,1-4.1,2.5c0.8,1.5,2.4,2.5,4.1,2.5h5.9
			c0.2,0.7,0.5,1.4,0.8,2l-2.2,2.2h1.4c0.2,0.7,0.5,1.4,0.8,2l-4.1,4.1c-0.3,0.3-0.6,0.7-0.8,1.1c1.2,2.3,3.9,3.1,6.2,2
			c0.4-0.2,0.8-0.5,1.1-0.8l4.1-4.1c0.6,0.3,1.3,0.6,2,0.8v5.9c0,2.5,2.1,4.6,4.6,4.6s4.6-2.1,4.6-4.6v-5.9
			C29.1,35.5,29.8,35.2,30.5,34.8z M18.9,25.2c0-0.7-0.4-0.7-0.2-1.4c-1.2-2.8,0.2-6,3-7.2c2.8-1.2,6,0.2,7.2,3
			c0.6,1.4,0.6,2.9,0,4.2c0.3,0.7-0.2,0.2-0.2,1c0,3-1.9,2.4-4.9,2.4C23.9,27.2,18.9,28.3,18.9,25.2z"/>
	</g>
	<g id="Groupe_70">
		<path id="Tracé_151" class="st2" d="M24.5,49.7c-2.9,0-5.2-2.3-5.2-5.2v-5.4c-0.4-0.2-0.9-0.3-1.3-0.5l-3.8,3.9
			c-2.1,2-5.3,1.9-7.3-0.1c-1.9-2-1.9-5.2,0-7.2l3.8-3.9c-0.2-0.4-0.4-0.9-0.5-1.3H4.7c-2.9,0-5.2-2.3-5.2-5.2
			c0-2.9,2.3-5.2,5.2-5.2h5.4c0.2-0.4,0.3-0.9,0.5-1.3l-3.9-3.9c-2-2.1-2-5.3,0.1-7.3c2-2,5.2-2,7.2,0l3.9,3.8
			c0.4-0.2,0.9-0.4,1.3-0.5V4.9c0-2.9,2.3-5.2,5.2-5.2s5.2,2.3,5.2,5.2v5.4c0.4,0.2,0.9,0.3,1.3,0.5L34.9,7c2-2.1,5.3-2.1,7.3-0.1
			s2.1,5.3,0.1,7.3c0,0-0.1,0.1-0.1,0.1l-3.9,3.9c0.2,0.4,0.4,0.9,0.5,1.3h5.5c2.9,0,5.2,2.3,5.2,5.2c0,2.9-2.3,5.2-5.2,5.2h-5.4
			c-0.2,0.4-0.3,0.9-0.5,1.3l3.9,3.9c2,2,2,5.3,0,7.3s-5.3,2-7.3,0l0,0L31,38.5c-0.4,0.2-0.9,0.4-1.3,0.5v5.4
			C29.7,47.4,27.4,49.7,24.5,49.7z M17.9,37.2c0.1,0,0.2,0,0.3,0.1c0.6,0.3,1.3,0.6,1.9,0.8c0.2,0.1,0.4,0.3,0.4,0.6v5.9
			c0,2.2,1.8,4,4,4c2.2,0,4-1.8,4-4v-5.9c0-0.3,0.2-0.5,0.4-0.6c0.7-0.2,1.3-0.5,1.9-0.8c0.2-0.1,0.5-0.1,0.7,0.1l4.1,4.1
			c1.6,1.6,4.1,1.6,5.7,0s1.6-4.1,0-5.7l-4.1-4.1c-0.2-0.2-0.2-0.5-0.1-0.7c0.3-0.6,0.6-1.3,0.8-1.9c0.1-0.2,0.3-0.4,0.6-0.4h5.9
			c2.2,0,4-1.8,4-4c0-2.2-1.8-4-4-4h-5.9c-0.3,0-0.5-0.2-0.6-0.4c-0.2-0.7-0.5-1.3-0.8-1.9c-0.1-0.2-0.1-0.5,0.1-0.7l4.1-4.1
			c1.5-1.6,1.5-4.1-0.1-5.7c-1.6-1.5-4-1.5-5.6,0L31.6,12c-0.2,0.2-0.5,0.2-0.7,0.1c-0.6-0.3-1.3-0.6-1.9-0.8
			c-0.2-0.1-0.4-0.3-0.4-0.6V4.9c0-2.2-1.8-4-4-4c-2.2,0-4,1.8-4,4c0,0,0,0,0,0v5.9c0,0.3-0.2,0.5-0.4,0.6c-0.7,0.2-1.3,0.5-1.9,0.8
			c-0.2,0.1-0.5,0.1-0.7-0.1l-4.1-4.2c-1.5-1.6-4.1-1.6-5.7-0.1C6.1,9.3,6,11.8,7.6,13.4c0,0,0.1,0.1,0.1,0.1l4.2,4.1
			c0.2,0.2,0.2,0.5,0.1,0.7c-0.3,0.6-0.6,1.3-0.8,1.9c-0.1,0.2-0.3,0.4-0.6,0.4H4.7c-2.2,0-4,1.8-4,4c0,2.2,1.8,4,4,4c0,0,0,0,0,0
			h5.9c0.3,0,0.5,0.2,0.6,0.4c0.2,0.7,0.5,1.3,0.8,1.9c0.1,0.2,0.1,0.5-0.1,0.7l-4.2,4.1c-1.6,1.6-1.6,4.1,0,5.7
			c1.6,1.6,4.1,1.6,5.7,0l0,0l4.1-4.1C17.6,37.3,17.8,37.2,17.9,37.2L17.9,37.2z M24.5,30.8c-3.4,0-6.1-2.7-6.1-6.1
			c0-3.4,2.7-6.1,6.1-6.1c3.4,0,6.1,2.7,6.1,6.1v0C30.6,28.1,27.9,30.8,24.5,30.8z M24.5,19.8c-2.7,0-4.9,2.2-4.9,4.9
			s2.2,4.9,4.9,4.9s4.9-2.2,4.9-4.9C29.5,22,27.3,19.8,24.5,19.8z"/>
	</g>
</g>
</svg>
