<svg version="1.1" xmlns="http://www.w3.org/2000/svg" xmlns:xlink="http://www.w3.org/1999/xlink" x="0px" y="0px"
	 viewBox="0 0 50 50" style="enable-background:new 0 0 50 50;" xml:space="preserve">
<style type="text/css">
	.st172{fill:#A05B22;}
	.st174{fill:#D48233;}
	.st175{fill:#CFDAFF;}
	.st176{fill:#0072D8;}
	.st177{fill:#070707;}
</style>
	<g>
		<path class="st175" d="M49.1,1c-13.8,1.6-19,12.5-24.7,18.1c-3.2,3.2-8,2.3-8,2.3c0.6,5.4-1,8-1.9,8.9l2.6,2.6L49.1,1z"/>
		<path class="st176" d="M49.1,1c-1.6,13.8-12.5,19-18.1,24.7c-3.2,3.2-2.3,8-2.3,8c-5.4-0.6-8,1-8.9,1.9l-2.6-2.6L49.1,1z"/>
		<path class="st176" d="M25.3,24.8c-2.6-0.3-8.9,3.7-10.8,5.5c0.7,0.7,2.6,2.6,2.6,2.6L25.3,24.8z"/>
		<path class="st175" d="M25.3,24.8c0.3,2.6-3.7,8.9-5.5,10.8c-0.7-0.7-2.6-2.6-2.6-2.6L25.3,24.8z"/>
		<path class="st177" d="M19.7,36.9l-6.6-6.6l0.7-0.7c0.5-0.5,2.3-2.7,1.6-8.1l-0.1-1.3l1.3,0.2c0,0,4.4,0.8,7.2-2
			c1.2-1.2,2.5-2.8,3.8-4.4C32.1,8.4,37.9,1.3,48.9,0c0,0,0.1,0,0.1,0c0.1,0,0.3,0,0.4,0.1c0,0,0,0,0,0l0,0c0,0,0.1,0,0.1,0.1
			c0.2,0.1,0.3,0.3,0.4,0.5c0,0.1,0,0.2,0,0.3c0,0,0,0.1,0,0.1c-1.3,11.1-8.4,16.8-14,21.4c-1.6,1.3-3.1,2.6-4.4,3.8
			c-2.8,2.8-2,7.1-2,7.2l0.2,1.3l-1.3-0.1c-5.4-0.6-7.6,1.1-8.1,1.6L19.7,36.9z M15.7,30.2l4.1,4.1c1.2-0.9,3.6-1.9,7.8-1.7
			c-0.1-1.8,0.2-5.2,2.6-7.7c1.3-1.3,2.9-2.6,4.5-3.9c5.5-4.4,11.6-9.4,13.2-18.9C38.4,3.7,33.4,9.8,29,15.3
			c-1.3,1.7-2.6,3.2-3.9,4.5c-2.5,2.5-5.9,2.7-7.7,2.6C17.7,26.6,16.6,29,15.7,30.2z"/>
		<rect class="st172" x="7.5" y="34.2" transform="matrix(0.7071 0.7071 -0.7071 0.7071 31.2099 4.6042)" width="5" height="11.5"/>
		<path class="st177" d="M7.8,47.2l-4.9-4.9l9.5-9.5l4.9,4.9L7.8,47.2z M5.6,42.3l2.2,2.2l6.8-6.8l-2.2-2.2L5.6,42.3z"/>
		<path class="st174" d="M12.3,20.8c0,0-1.8,4.7,5.2,11.8c-1.7,1.7-4.8,4.8-4.8,4.8c-6.4-6.4-4.6-13.8-1.9-16.4L12.3,20.8z"/>
		<path class="st174" d="M29.3,37.7c0,0-4.7,1.8-11.8-5.2c-1.7,1.7-4.8,4.8-4.8,4.8c6.4,6.4,13.8,4.6,16.4,1.9L29.3,37.7z"/>
		<path class="st177" d="M22.3,42.6c-3.2,0-6.9-1.2-10.3-4.6c-7-7-4.7-15-1.9-17.8c0.2-0.2,0.4-0.3,0.6-0.3l1.5-0.1
			c0.3,0,0.6,0.1,0.8,0.4c0.2,0.3,0.2,0.6,0.1,0.9c0,0-1.4,4.3,5,10.7c6.4,6.4,10.7,5,10.7,5c0.3-0.1,0.6-0.1,0.9,0.1
			c0.3,0.2,0.4,0.5,0.4,0.8l-0.1,1.5c0,0.2-0.1,0.4-0.3,0.6C28.4,41.3,25.6,42.6,22.3,42.6z M11.1,21.9c-2.1,2.6-3.5,9,2.2,14.8
			c5.8,5.8,12.2,4.4,14.8,2.2c-2.1,0.1-6.1-0.5-11.3-5.7C11.7,28,11,23.9,11.1,21.9z"/>
		<circle class="st174" cx="4.7" cy="45.3" r="3.7"/>
		<path class="st177" d="M4.7,50c-1.2,0-2.4-0.5-3.3-1.4c-1.8-1.8-1.8-4.8,0-6.6c1.8-1.8,4.8-1.8,6.6,0c1.8,1.8,1.8,4.8,0,6.6l0,0
			C7.1,49.5,5.9,50,4.7,50z M4.7,42.5c-0.7,0-1.4,0.3-2,0.8c-1.1,1.1-1.1,2.9,0,3.9c1.1,1.1,2.9,1.1,3.9,0c1.1-1.1,1.1-2.9,0-3.9
			C6.2,42.8,5.5,42.5,4.7,42.5z"/>
	</g>
</svg>
